<svg xmlns="http://www.w3.org/2000/svg" data-name="Layer 1" version="1.1" viewBox="0 0 32 32"><path fill="none" stroke-width="0" d="m18.279 8.03-.772-.254a.596.596 0 0 0-.738.349l1.897.626a.59.59 0 0 0-.387-.721"/><path fill="#fff" stroke-width="0" d="M13.471 24.593 14.571 24.595 14.571 13.268 13.471 13.266 13.471 24.593z"/><path fill="#fff" stroke-width="0" d="M15.371 24.596 16.472 24.597 16.472 13.27 15.371 13.269 15.371 24.596z"/><path fill="#fff" stroke-width="0" d="M17.271 24.598 18.372 24.6 18.372 13.273 17.271 13.271 17.271 24.598z"/><path fill="#fff" stroke-width="0" d="M21.071 13.276v10.143l1.488-10.013c-.026-.042-.132-.128-.308-.128z"/><path fill="#fff" stroke-width="0" d="M19.171 24.601 20.271 24.603 20.271 13.275 19.171 13.274 19.171 24.601z"/><path fill="#fff" stroke-width="0" d="M11.619 13.263c-.177 0-.282.086-.307.128l1.359 9.968V13.264H11.62z"/><path stroke-width="0" d="m22.253 11.778-10.631-.015h-.003c-.458 0-.895.154-1.23.436a1.58 1.58 0 0 0-.582 1.203q0 .05.007.103l1.5 11.005c.034.877.833 1.581 1.811 1.583l7.484.011h.003c.458 0 .895-.155 1.23-.437a1.58 1.58 0 0 0 .58-1.139l1.634-10.997a1 1 0 0 0 .008-.109c0-.904-.812-1.642-1.812-1.644ZM12.671 23.36l-1.359-9.968c.024-.042.129-.128.307-.128h1.052zm1.9 1.235-1.1-.002V13.266l1.1.002zm1.901.002-1.101-.002V13.268l1.101.002zm1.9.003-1.1-.002V13.271l1.1.002zm1.899.003-1.1-.002V13.274h1.1zm.8-1.184V13.276l1.18.002c.176 0 .282.086.308.128zM23.971 10.503l-4.545-1.501a1.39 1.39 0 0 0-.897-1.732l-.772-.254a1.386 1.386 0 0 0-1.747.858l-4.509-1.489a.75.75 0 1 0-.471 1.424l12.471 4.117a.749.749 0 1 0 .47-1.424Zm-5.305-1.752-1.897-.626a.59.59 0 0 1 .738-.349l.772.254a.591.591 0 0 1 .387.721"/></svg>