<svg xmlns="http://www.w3.org/2000/svg" data-name="Layer 1" version="1.1" viewBox="0 0 32 32"><path fill="none" stroke-width="0" d="m24.366 10.609-16.717.064c-.07 0-.127.071-.127.155v10.535c0 .084.057.155.124.155l16.717-.064c.07 0 .127-.071.127-.155V10.764c0-.084-.057-.155-.124-.155m-6.773 3.822h5.149a.347.347 0 1 1 0 .694h-5.149a.347.347 0 1 1 0-.695Zm-5.215-1.757c1.116 0 2.019.907 2.019 2.026s-.903 2.026-2.019 2.026-2.019-.907-2.019-2.026.904-2.026 2.019-2.026m-3.483 6.932c0-.732.557-2.337 1.802-2.796.473.38 1.062.592 1.681.592.613 0 1.196-.207 1.667-.58 1.221.465 1.782 2.057 1.782 2.784zm13.87-1.433a.4.4 0 0 1-.061.006h-5.149a.348.348 0 0 1 0-.696h5.149a.348.348 0 0 1 .061.69m.05-1.51a.4.4 0 0 1-.061.005h-5.149a.347.347 0 1 1 0-.695h5.15a.347.347 0 0 1 .061.689Z"/><path fill="#1a171b" stroke-width="0" d="M12.378 16.726c1.116 0 2.019-.907 2.019-2.026s-.903-2.026-2.019-2.026-2.019.907-2.019 2.026.904 2.026 2.019 2.026M14.045 16.822a2.68 2.68 0 0 1-1.667.58c-.62 0-1.209-.212-1.681-.592-1.246.459-1.802 2.064-1.802 2.796h6.932c0-.726-.561-2.319-1.782-2.784"/><path fill="#1c1c1a" stroke-width="0" d="m24.363 9.109-16.717.064c-.896 0-1.624.742-1.624 1.655v10.535c0 .913.728 1.655 1.627 1.655l16.717-.064c.895 0 1.624-.742 1.624-1.655V10.764c0-.913-.728-1.655-1.627-1.655M24.49 21.3c0 .084-.057.155-.127.155l-16.717.064c-.067 0-.124-.071-.124-.155V10.829c0-.084.057-.155.127-.155l16.717-.064c.067 0 .124.071.124.155z"/><path fill="#1a171b" stroke-width="0" d="M22.704 17.483h-5.149a.348.348 0 0 0 0 .696h5.149a.348.348 0 1 0 0-.695ZM17.593 15.127h5.149a.348.348 0 1 0 0-.696h-5.149a.348.348 0 0 0 0 .696M22.754 15.973h-5.15a.348.348 0 0 0 0 .696h5.149a.348.348 0 1 0 0-.696Z"/></svg>