<svg xmlns="http://www.w3.org/2000/svg" xml:space="preserve" x="0" y="0" viewBox="0 0 32 32"><path fill="#12120D" d="M24.787 20.175 16.374 6.148a1.015 1.015 0 0 0-1.742.002L6.267 20.171a1.02 1.02 0 0 0 .877 1.544h16.771c.79 0 1.278-.862.872-1.54M15.503 7.927c.631 0 1.021.334 1.021 1.133 0 .688-.204 2.452-.446 5.05l-.241 2.582h-.668l-.241-2.582c-.242-2.599-.446-4.363-.446-5.05 0-.799.39-1.133 1.021-1.133m0 12.446c-.7 0-1.26-.579-1.26-1.26 0-.68.56-1.28 1.26-1.28s1.26.6 1.26 1.28c0 .681-.56 1.26-1.26 1.26"/></svg>