<svg xmlns="http://www.w3.org/2000/svg" viewBox="0 0 32 32"><g fill="#12120d" stroke-width="0" data-name="Layer 1"><path d="M15.808 9.846a.5.5 0 0 1-.5-.5V6.949a.5.5 0 0 1 1 0v2.397a.5.5 0 0 1-.5.5M19.772 11.152a.5.5 0 0 1-.361-.847l1.661-1.729a.5.5 0 0 1 .721.693l-1.661 1.729a.5.5 0 0 1-.36.153ZM21.987 14.183a.499.499 0 0 1-.124-.984l2.322-.597a.5.5 0 0 1 .248.968l-2.322.597a.5.5 0 0 1-.124.016M17.81 24.528h-4a.5.5 0 0 1 0-1h4a.5.5 0 0 1 0 1M17.107 26.01h-2.649a.5.5 0 0 1 0-1h2.649a.5.5 0 0 1 0 1M21.185 15.744c0-2.964-2.412-5.375-5.376-5.375s-5.375 2.411-5.375 5.375c0 .024.023 2.435 2.004 4.983.24.32.291 1.139.265 1.499a.75.75 0 0 0 .745.839h4.713a.75.75 0 0 0 .745-.834c-.023-.361.032-1.181.27-1.494 1.986-2.56 2.01-4.969 2.01-4.993Zm-5.781 3.307h.885l-.314 2.515h-.256l-.314-2.515Zm2.58.774c-.352.466-.512 1.154-.562 1.74h-.439l.463-3.702a.501.501 0 0 0-.993-.125l-.039.312h-1.135l-.039-.312a.5.5 0 0 0-.993.125l.463 3.702h-.521c-.048-.588-.207-1.278-.561-1.748-1.621-2.088-1.693-4.018-1.695-4.077.002-2.135 1.739-3.871 3.875-3.871s3.876 1.738 3.876 3.87c0 .02-.084 2.003-1.701 4.086ZM24.376 18.633a.5.5 0 0 1-.13-.018l-2.315-.623a.499.499 0 1 1 .259-.965l2.315.623a.499.499 0 0 1-.129.982ZM11.832 11.152a.5.5 0 0 1-.36-.153L9.81 9.27a.5.5 0 1 1 .721-.693l1.662 1.729a.5.5 0 0 1-.361.847ZM9.617 14.183a.5.5 0 0 1-.124-.016l-2.322-.597a.5.5 0 1 1 .248-.968l2.322.597a.5.5 0 0 1-.124.984M7.227 18.633a.498.498 0 0 1-.129-.982l2.315-.623a.496.496 0 0 1 .612.353.5.5 0 0 1-.353.612l-2.315.623a.5.5 0 0 1-.13.018Z"/></g></svg>