<svg xmlns="http://www.w3.org/2000/svg" viewBox="0 0 32 32"><g fill="#1d1d1b" stroke-width="0" data-name="Layer 1"><path d="M17.527 18.497a.55.55 0 0 1-.548.548h-1.957a.55.55 0 0 1-.548-.548v-.122c-3.208-.26-6.165-1.363-8.408-3.08v8.18c0 .402.329.731.731.731h18.369a.733.733 0 0 0 .731-.731v-8.162c-2.236 1.703-5.176 2.801-8.37 3.06z"/><path d="M25.165 10.371h-3.473V8.637c0-.404-.168-.788-.462-1.056-.287-.263-.647-.393-.99-.358l-8.481.002a1.36 1.36 0 0 0-1.05.356 1.43 1.43 0 0 0-.462 1.056v1.734H6.798a.733.733 0 0 0-.731.731v3.11c.024.015.055.007.077.026 2.128 1.807 5.105 2.945 8.331 3.219v-.007a.55.55 0 0 1 .548-.548h1.957a.55.55 0 0 1 .548.548v.007c3.23-.278 6.206-1.418 8.333-3.23.011-.009.026-.005.037-.013v-3.112a.733.733 0 0 0-.731-.731Zm-4.843 0h-8.706l.082-1.78 8.624.046z"/></g></svg>