<svg xmlns="http://www.w3.org/2000/svg" viewBox="0 0 32 32"><path fill="#060300" stroke-width="0" d="M25.164 10.618H21.66V8.884c0-.404-.168-.788-.462-1.056-.287-.263-.647-.393-.99-.358l-8.481.002a1.36 1.36 0 0 0-1.05.356 1.43 1.43 0 0 0-.462 1.056v1.734h-3.48c-.385 0-.7.315-.7.7v12.433c0 .385.315.7.7.7h18.431c.385 0 .7-.315.7-.7V11.318c0-.385-.315-.7-.7-.7ZM11.666 8.839l8.624.046v1.734h-8.706zm12.698 14.112H7.533v-6.425c1.995 1.148 4.369 1.889 6.908 2.094v.122a.55.55 0 0 0 .548.548h1.957a.55.55 0 0 0 .548-.548v-.124c2.525-.205 4.885-.941 6.87-2.079v6.411Zm0-7.428c-1.94 1.199-4.322 1.961-6.87 2.181v-.007a.55.55 0 0 0-.548-.548h-1.957a.55.55 0 0 0-.548.548v.007c-2.563-.218-4.96-.988-6.908-2.199v-3.387h16.831z" data-name="Layer 1"/></svg>