<svg xmlns="http://www.w3.org/2000/svg" data-name="Layer 1" version="1.1" viewBox="0 0 32 32"><path fill="none" stroke-width="0" d="M18.489 11.796c0-1.363-1.108-2.471-2.471-2.471s-2.472 1.108-2.472 2.471 1.108 2.472 2.472 2.472 2.471-1.108 2.471-2.472"/><path fill="#1d1d1b" stroke-width="0" d="m18.904 19.198-1.237 1.908c3.558.167 5.727.895 6.292 1.399-.641.571-3.519 1.44-7.926 1.44s-7.285-.869-7.926-1.44c.557-.497 2.761-1.222 6.233-1.403l-1.205-1.905c-2.979.263-7.106 1.037-7.106 3.307 0 3.344 8.981 3.44 10.005 3.44s10.004-.097 10.004-3.44c0-2.306-4.147-3.057-7.134-3.308Z"/><path fill="#1d1d1b" stroke-width="0" d="M21.785 11.248c0-2.883-2.583-5.218-5.767-5.218s-5.767 2.335-5.767 5.218 2.525 6.232 5.767 11.258c3.242-5.026 5.767-8.374 5.767-11.258m-8.238.548a2.473 2.473 0 1 1 2.472 2.472 2.474 2.474 0 0 1-2.472-2.472"/></svg>