<svg xmlns="http://www.w3.org/2000/svg" data-name="Layer 1" version="1.1" viewBox="0 0 32 32"><path fill="none" stroke-width="0" d="M6.018 6.006H26.018V25.994H6.018z"/><g stroke-width="0"><path fill="none" d="M10.799 12.666s.028-.507.255-1.096c.436-1.134 1.055-1.805 2.291-2.702 1.879-1.366 4.684-1.391 4.684-1.391l1.108-1.472H6.07v9.804c1.076-2.811 4.728-3.144 4.728-3.144ZM20.539 6.152l-.309 1.184.996-.285-.446 1.185c1.713 1.097 2.917 3.138 3.395 4.572.924 2.766-.238 6.698-.238 6.698.885.189 1.428.475 2.133 1.108V6.006h-6.929l.21 1.141 1.187-.994Z"/><path fill="none" d="m19.79 20.309.929.022.731-1.513-1.485-.095s1.229-1.545 1.485-2.272c.257-.727.229-2.273.095-2.738-.16-.546-1.066-3.095-4.038-3.015s-3.563 2.098-3.759 2.829c-.361 1.393-.047 4.408-.047 4.408s-.121.057-.342.122l-.002-.007-3.473.049c-1.07.212-2.994-.028-2.994-.028 2.086-1.03 3.355-2.09 3.355-2.09-1.486-.31-4.176-.172-4.176-.172v10.184h1.09l1.004-3.777c.255-.799.569-1.594.86-2.272l1.575-.046c-.064 1.814-.26 4.633-.847 6.095h6.636c.155-1.201.853-2.444 1.336-3.146.586-.962 1.366-1.841 2.065-2.539Zm-3.038-6.402c0-.636.492-1.152 1.094-1.152.607 0 1.096.517 1.096 1.152 0 .64-.488 1.154-1.096 1.154-.602 0-1.094-.515-1.094-1.154M26.004 25.994h.066v-.059z"/><path fill="#20221d" d="M18.941 13.907c0-.636-.488-1.152-1.096-1.152-.602 0-1.094.517-1.094 1.152 0 .64.492 1.154 1.094 1.154.607 0 1.096-.515 1.096-1.154M9.024 19.945a26 26 0 0 0-.86 2.272L7.16 25.994h2.593c.587-1.462.782-4.281.847-6.095l-1.575.046Z"/><path fill="#20221d" d="M26.07 20.614c-.705-.633-1.248-.919-2.133-1.108 0 0 1.162-3.933.238-6.698-.478-1.435-1.683-3.476-3.395-4.572l.446-1.185-.996.285.309-1.184-1.187.994-.21-1.141h-.005l-1.108 1.472s-2.805.024-4.684 1.391c-1.236.897-1.854 1.568-2.291 2.702-.227.589-.255 1.096-.255 1.096s-3.652.333-4.728 3.144c0 0 2.689-.138 4.176.172 0 0-1.269 1.06-3.355 2.09 0 0 1.924.24 2.994.028l3.473-.049.002.007c.221-.065.342-.122.342-.122s-.314-3.016.047-4.408c.195-.731.787-2.749 3.759-2.829s3.878 2.469 4.038 3.015c.135.465.162 2.012-.095 2.738-.256.728-1.485 2.272-1.485 2.272l1.485.095-.731 1.513-.929-.022c-.699.698-1.48 1.577-2.065 2.539-.482.702-1.181 1.945-1.336 3.146h9.615l.066-.059v-5.321Z"/></g></svg>