<svg xmlns="http://www.w3.org/2000/svg" data-name="Layer 1" version="1.1" viewBox="0 0 32 32"><path fill="#1a171b" stroke-width="0" d="M16.032 9.729c2.717 0 8.653-.146 9.833-1.363h-.866c-1.338.504-4.842.863-8.967.863-4.149 0-7.67-.364-8.991-.873H6.19c1.158 1.226 7.118 1.373 9.842 1.373M25.587 7.914c0-.727-4.278-1.315-9.555-1.315s-9.555.589-9.555 1.315c0 .155.205.304.564.441l2.364.002c-1.017-.137-1.758-.293-2.163-.443 1.033-.385 4.197-.815 8.789-.815s7.756.431 8.789.815c-.412.152-1.174.311-2.217.449l2.394.002c.374-.142.588-.293.588-.451Z"/><g fill="#1a171b" stroke-width="0"><path d="M6.477 7.914c0-.727 4.278-1.315 9.555-1.315s9.555.589 9.555 1.315c0 .158-.214.31-.588.451h.866c.133-.138.222-.285.222-.451 0-1.639-7.032-1.815-10.055-1.815S5.977 6.276 5.977 7.914c0 .162.086.307.213.441h.851c-.359-.138-.564-.286-.564-.441"/><path d="M25.896 8.365h-.032c-1.18 1.217-7.116 1.363-9.833 1.363s-8.684-.147-9.842-1.373H6.16s6.428 5.808 8.906 8.077v7.165c-2.528.107-4.442.604-4.442 1.201 0 .675 2.444 1.223 5.458 1.223s5.458-.548 5.458-1.223c0-.6-1.93-1.098-4.474-1.202V16.38z"/><path d="m24.998 8.365-2.394-.002c-1.576.208-3.809.365-6.572.365l-6.626-.371-2.364-.002c1.32.509 4.841.873 8.991.873 4.125 0 7.629-.359 8.967-.863Z"/></g></svg>