<svg xmlns="http://www.w3.org/2000/svg" viewBox="0 0 32 32"><g fill="#1d1d1b" fill-rule="evenodd" stroke-width="0" data-name="Layer 1"><path d="M13.355 19.368q-1.174 0-2.023.849-.816.816-.815 1.991c.001 1.175.271 1.458.815 2.023q.849.816 2.023.816c1.174 0 1.447-.271 1.99-.816q.848-.847.85-2.023 0-1.175-.85-1.991a2.66 2.66 0 0 0-1.99-.849m0 4.34q-1.5 0-1.5-1.5c0-1.5.499-1.501 1.5-1.501s1.5.5 1.5 1.501-.499 1.5-1.5 1.5"/><path d="M23.994 11.112a1.08 1.08 0 0 0-.652-.685 2.5 2.5 0 0 0-.85-.262H6.015v1.019h3.527q.49-.031.489.488v4.699s-.031.09-.097.262q-.097.229-.393.229H6.014v6.324h3q.784.002.85-.847v-.131q0-1.468 1.012-2.48 1.01-1.043 2.479-1.045 1.434.001 2.447 1.045 1.043 1.013 1.046 2.48v.163q0 .784.846.814h7.703q.651.001.65-.652v-4.664zm-7.539 5.254s-.031.089-.097.261q-.098.229-.393.229h-4.373q-.49 0-.489-.522v-4.667q0-.488.489-.488h4.373q.49-.031.489.488v4.699Zm3.656 2.154h-2.156q-.52 0-.52-.521v-6.332q0-.488.457-.488h2.22q.488 0 .489.488l.033 6.363q-.001.49-.522.49Zm4.862-.326q-.033.327-.424.326h-2.416q-.52 0-.519-.49v-6.198q0-.654.879-.653.49 0 .621.488l1.893 6.202-.033.325Z"/></g></svg>