<svg xmlns="http://www.w3.org/2000/svg" data-name="Layer 1" version="1.1" viewBox="0 0 32 32"><path fill="#1a171b" stroke-width="0" d="M23.41 22.817a.75.75 0 0 0 .005-1.5l-6.512-.047-.002-1.581c0-.066-.022-.125-.038-.186h3.719c.988 0 1.789-.698 1.789-1.559 0-.308-.106-.593-.282-.834.428-.247.72-.705.72-1.235v-4.284c0-.788-.642-1.43-1.43-1.43-.145 0-.283.028-.415.069l.212-1.752c0-2.016-2.552-2.552-4.774-2.552s-5.1.647-5.1 2.663l.291 1.644c-.068-.01-.136-.021-.207-.021-.788 0-1.43.642-1.43 1.43v4.285c0 .476.236.896.594 1.156a1.4 1.4 0 0 0-.299.861c0 .86.802 1.559 1.79 1.559h3.397c-.016.061-.038.121-.038.188l.002 1.569-5.549-.04h-.005a.75.75 0 0 0-.017 1.498 1.2 1.2 0 0 0-.412.897 1.215 1.215 0 1 0 2.432 0 1.2 1.2 0 0 0-.391-.883l3.944.028v.532a.74.74 0 0 0 .169.453 1.2 1.2 0 0 0-.671 1.072 1.215 1.215 0 1 0 2.432 0c0-.451-.256-.828-.62-1.038a.74.74 0 0 0 .191-.489v-.519l4.549.032a1.207 1.207 0 0 0 .885 2.038c.672 0 1.217-.544 1.217-1.216a1.2 1.2 0 0 0-.322-.809h.171zm-2.46-11.225a.43.43 0 1 1 .86 0v4.284a.43.43 0 1 1-.86 0zm-.946 4.65q.019.074.044.143h-.119c.028-.046.049-.096.074-.143Zm-8.188-.314a.43.43 0 1 1-.86 0v-4.285a.43.43 0 1 1 .86 0zm.919.457c.017-.051.036-.101.048-.155.028.053.062.103.092.155z"/></svg>