<svg xmlns="http://www.w3.org/2000/svg" data-name="Layer 1" version="1.1" viewBox="0 0 32 32"><path fill="#1d1d1b" stroke-width="0" d="M20.693 17.6a.57.57 0 0 0-.554.086c-1.209.958-2.664 1.464-4.208 1.464s-3.045-.53-4.246-1.495a.57.57 0 0 0-.551-.09c-3.701 1.364-5.301 6.078-5.301 8.182 0 .313.254.567.567.567h18.966a.567.567 0 0 0 .567-.567c0-2.078-1.583-6.754-5.241-8.146Zm-13.69 7.579c.238-2.008 1.654-5.292 4.24-6.435 2.693 1.979 6.628 1.991 9.331.034 2.553 1.161 3.952 4.414 4.189 6.4H7.003Z"/><path fill="#1d1d1b" stroke-width="0" d="M15.932 18.436c3.358 0 6.09-2.742 6.09-6.112s-2.732-6.111-6.09-6.111-6.091 2.742-6.091 6.111 2.732 6.112 6.091 6.112m0-11.089c2.733 0 4.956 2.232 4.956 4.977 0 .035-.01.068-.01.103-.598.447-1.358.777-2.113.968-.233-.401-.644-.67-1.116-.67h-1.578c-.728 0-1.319.635-1.319 1.417s.591 1.417 1.319 1.417h1.578c.602 0 1.105-.437 1.262-1.03a7.5 7.5 0 0 0 1.692-.608c-.667 1.959-2.497 3.38-4.671 3.38-2.733 0-4.958-2.232-4.958-4.978s2.224-4.977 4.958-4.977Z"/></svg>