<svg xmlns="http://www.w3.org/2000/svg" data-name="Layer 1" version="1.1" viewBox="0 0 32 32"><path fill="#1f1c18" stroke-width="0" d="M24.444 6.782h-.002l-11.574-.003h-.003c-.38 0-.749.149-1.011.411a1.29 1.29 0 0 0-.386.915v2.117l-4.142.001h-.002c-.77.003-1.396.599-1.396 1.327l.002 10.159c.002.729.629 1.323 1.399 1.324h.854l-.014 2.572a.603.603 0 0 0 .6.603.6.6 0 0 0 .39-.144l3.542-3.033 6.203-.003c.384 0 .755-.151 1.018-.415a1.28 1.28 0 0 0 .381-.911v-1.248l2.307 1.976a.6.6 0 0 0 .99-.459l-.014-2.572h.855c.769 0 1.396-.596 1.398-1.325l.002-9.965c0-.729-.626-1.324-1.396-1.327Zm-5.373 14.986a.23.23 0 0 1-.168.062l-6.424.003a.6.6 0 0 0-.39.144L9.376 24.3l.01-1.862a.604.604 0 0 0-.6-.603H7.33c-.123 0-.201-.076-.201-.126l-.002-10.158c0-.059.087-.127.199-.128h4.14l-.001 6.644c0 .341.134.666.381.913.263.264.634.415 1.017.415l6.203.003.011.009-.007 2.361Zm5.567-3.696c0 .052-.078.127-.199.128h-1.457a.598.598 0 0 0-.6.603l.01 1.862-2.713-2.323a.6.6 0 0 0-.39-.144l-6.425-.003c-.095 0-.149-.044-.198-.127l.035-10.028a.23.23 0 0 1 .165-.062l11.573.003c.113 0 .2.069.2.128l-.002 9.963Z"/><path fill="#1f1c18" stroke-width="0" d="M15.695 12.152a.777.777 0 1 0 0 1.554.777.777 0 0 0 0-1.554M18.931 12.152a.777.777 0 1 0 0 1.554.777.777 0 0 0 0-1.554M22.166 12.152a.777.777 0 1 0 0 1.554.777.777 0 0 0 0-1.554M9.788 16.063a.777.777 0 1 0 0 1.554.777.777 0 0 0 0-1.554"/></svg>