<svg xmlns="http://www.w3.org/2000/svg" data-name="Layer 1" version="1.1" viewBox="0 0 32 32"><path fill="#211b15" stroke-width="0" d="M25.863 15.789v-1.694a1.37 1.37 0 0 0-1.359-1.381 44 44 0 0 0-1.21 0 1.36 1.36 0 0 0-1.281.94q-.013.04-.021.077a3.42 3.42 0 0 0-2.391-1.019h-.016c.009-.025.022-.046.03-.072a1.44 1.44 0 0 0-.105-1.128c-.29-.542-.765-.83-1.374-.832q-1.238-.004-2.479-.003h-.528a3.81 3.81 0 0 0 0-2.987 3.5 3.5 0 0 0-.324-.604 2 2 0 0 0-.509-.503 1.7 1.7 0 0 0-.793-.31c-.54-.075-.984.177-1.19.675-.104.251-.137.504-.179.819l-.024.204a2.4 2.4 0 0 1-.083.482 8.1 8.1 0 0 1-1.384 2.598c-.328.408-.641.705-.979.929a1.37 1.37 0 0 0-1.222-.722H7.346a2 2 0 0 0-.263.016 1.37 1.37 0 0 0-1.171 1.389q.002.39-.002.779l-.003.525v4.466a1.375 1.375 0 0 0 1.361 1.382q.285.004.572.004.318 0 .638-.004a1.36 1.36 0 0 0 1.28-.94q.012-.039.022-.078a3.4 3.4 0 0 0 1.35.844c.335.116.685.175 1.041.175h.016c-.009.026-.022.046-.03.072-.119.388-.083.777.105 1.129.291.542.766.83 1.374.832.794.003 1.589 0 2.385.002h.621a3.832 3.832 0 0 0 .324 3.591c.154.228.353.389.509.503a1.7 1.7 0 0 0 .979.323c.455 0 .823-.248 1.004-.688.105-.253.139-.507.18-.819l.023-.204c.019-.173.036-.336.084-.483a8.2 8.2 0 0 1 1.384-2.598c.328-.408.641-.705.979-.928.241.445.696.721 1.223.722h1.095q.13.001.264-.016a1.37 1.37 0 0 0 1.171-1.39q-.002-.381.002-.762l.003-.542v-2.774ZM8.801 18.402c0 .242-.145.387-.388.387H7.305a.35.35 0 0 1-.367-.366v-4.958q-.002-.398 0-.795c0-.079.013-.128.022-.155a.35.35 0 0 1 .333-.223h1.16c.194 0 .353.158.353.351l-.004 1.227v4.533Zm4.208-9.634c.082-.26.109-.52.142-.838q.027-.247.086-.493c.011-.05.044-.112.044-.14.214 0 .39.072.54.22.119.117.207.217.271.371.077.184.155.368.207.56.224.823.095 1.588-.396 2.338l-.069.092a.51.51 0 0 0-.063.529.5.5 0 0 0 .438.304c.041.004.081 0 .148.003h3.788c.244 0 .451.169.493.401a.48.48 0 0 1-.099.41.52.52 0 0 1-.395.182h-1.166c-.281.003-.5.196-.521.46a.54.54 0 0 0 .139.412c.098.105.255.14.379.162h1.167q.148-.001.268.074c.193.12.278.34.217.561a.5.5 0 0 1-.475.358h-1.45a.51.51 0 0 0-.476.29.514.514 0 0 0 .484.742h.165q.493-.005.986 0a.47.47 0 0 1 .415.229.45.45 0 0 1 .021.499.46.46 0 0 1-.425.265c-.33.004-.658.002-.989.002h-.452a.51.51 0 0 0-.469.264.5.5 0 0 0 .016.53.52.52 0 0 0 .462.237q.559-.002 1.119 0c.186.002.32.071.42.219a.45.45 0 0 1 .033.503c-.095.184-.231.271-.427.272q-.91.005-1.816.002h-3.611a2.2 2.2 0 0 1-1.069-.281c-.703-.392-1.106-.972-1.234-1.774a2 2 0 0 1-.022-.315v-3.371c.356-.136.644-.363.882-.574.554-.489 1.043-1.11 1.498-1.896a9 9 0 0 0 .796-1.808Zm8.928 10.718c-.356.136-.644.364-.882.575-.555.491-1.045 1.111-1.498 1.896a9 9 0 0 0-.795 1.808c-.083.264-.11.527-.142.838a4 4 0 0 1-.086.493c-.011.049-.045.113-.044.14a.73.73 0 0 1-.54-.22 1.1 1.1 0 0 1-.271-.371c-.077-.184-.155-.368-.207-.56-.224-.822-.095-1.587.396-2.338l.068-.092a.51.51 0 0 0 .063-.531.51.51 0 0 0-.438-.302l-.079-.003h-3.858a.496.496 0 0 1-.492-.403.48.48 0 0 1 .099-.409.52.52 0 0 1 .395-.182h1.166c.015 0 .027-.006.042-.008q1.373.001 2.745-.001c.6-.002 1.081-.3 1.354-.837.263-.516.23-1.048-.095-1.542.297-.245.48-.571.536-.958a1.46 1.46 0 0 0-.245-1.071c.326-.271.513-.631.544-1.058a1.6 1.6 0 0 0-.071-.606h.01c.378.003.738.098 1.069.281.703.392 1.106.972 1.234 1.774q.023.156.022.314v3.371Zm.321.649.129-.049.002.013zm2.554-.117a.35.35 0 0 1-.333.223h-1.16a.353.353 0 0 1-.353-.351l.004-1.227V14.13c0-.242.145-.387.386-.387h1.109c.216 0 .367.151.368.367v4.92q.003.416.001.832a.5.5 0 0 1-.022.155Z"/></svg>