<svg xmlns="http://www.w3.org/2000/svg" viewBox="0 0 32 32"><g fill="#1d1d1b" stroke-width="0" data-name="Layer 1"><path d="M25.613 14.919a1.47 1.47 0 0 0-2.079.003l-7.467 7.489-7.484-7.461a1.47 1.47 0 0 0-2.076 2.082l8.526 8.5a1.467 1.467 0 0 0 2.079-.003l.002-.004.002-.002 8.5-8.525a1.47 1.47 0 0 0-.003-2.079"/><path d="M15.005 17.044c.287.286.662.429 1.038.429a1.47 1.47 0 0 0 1.043-.436h.002l8.5-8.527a1.471 1.471 0 0 0-2.082-2.076l-7.467 7.49-7.484-7.462a1.47 1.47 0 0 0-2.076 2.082z"/></g></svg>