<svg xmlns="http://www.w3.org/2000/svg" viewBox="0 0 32 32"><g fill="#1d1d1b" stroke-width="0" data-name="Layer 1"><path d="M14.957 6.429a1.47 1.47 0 0 0 .002 2.08l7.49 7.467-7.462 7.484a1.47 1.47 0 1 0 2.083 2.075l8.5-8.526a1.47 1.47 0 0 0-.004-2.078q0-.002-.004-.003t-.002-.002l-8.525-8.5a1.47 1.47 0 0 0-2.078.003"/><path d="M17.082 17.036a1.47 1.47 0 0 0-.004-2.078q-.001-.002-.004-.003 0 0-.002-.003L8.547 6.453a1.471 1.471 0 0 0-2.076 2.083l7.49 7.467-7.462 7.484a1.47 1.47 0 1 0 2.083 2.075z"/></g></svg>