<svg xmlns="http://www.w3.org/2000/svg" xml:space="preserve" x="0" y="0" viewBox="0 0 32 32"><path fill="none" d="M15.967 7.441c-4.687 0-8.5 3.813-8.5 8.5s3.813 8.5 8.5 8.5 8.5-3.813 8.5-8.5-3.813-8.5-8.5-8.5m-3.606 7.143a.906.906 0 0 1 1.281.027l1.419 1.479.001-7.351a.906.906 0 1 1 1.812 0l-.001 7.35 1.419-1.488a.904.904 0 1 1 1.31 1.25l-2.974 3.119q-.008.006-.017.012-.007.01-.013.019a.8.8 0 0 1-.187.134c-.027.014-.067.035-.095.047a.9.9 0 0 1-.345.071.7.7 0 0 1-.199-.024.884.884 0 0 1-.321-.146 1 1 0 0 1-.103-.083q-.003-.005-.007-.009c-.007-.007-.017-.009-.025-.017l-2.982-3.109a.906.906 0 0 1 .027-1.281m8.805 7.14H10.768a.923.923 0 1 1 0-1.846h10.398a.923.923 0 0 1 0 1.846"/><path fill="#1F1C18" d="M21.166 19.877H10.768a.923.923 0 0 0 0 1.846h10.398a.923.923 0 1 0 0-1.846M15.316 18.974c.007.008.017.01.025.017q.004.005.007.009a1 1 0 0 0 .291.186c.037.015.094.033.133.043a.8.8 0 0 0 .199.024.9.9 0 0 0 .44-.118.8.8 0 0 0 .187-.134q.007-.01.013-.019.009-.006.017-.012l2.974-3.119a.905.905 0 1 0-1.31-1.25l-1.419 1.488.001-7.35a.906.906 0 1 0-1.812 0l-.001 7.351-1.419-1.479a.906.906 0 1 0-1.308 1.254z"/><path fill="#1D1D1B" d="M15.967 5.941c-5.523 0-10 4.477-10 10s4.477 10 10 10 10-4.477 10-10-4.477-10-10-10m0 18.5c-4.687 0-8.5-3.813-8.5-8.5s3.813-8.5 8.5-8.5 8.5 3.813 8.5 8.5-3.813 8.5-8.5 8.5"/></svg>