<svg xmlns="http://www.w3.org/2000/svg" viewBox="0 0 32 32"><path fill="none" stroke="#1d1d1b" stroke-linecap="round" stroke-linejoin="round" stroke-width="1.25" d="M25.254 17.351v-2.33l-2.789-1.148-.109-.322a1.7 1.7 0 0 0-.146-.304l1.137-2.79-1.654-1.652-2.762 1.154a2 2 0 0 0-.305-.144q-.16-.062-.332-.128l-1.178-2.751h-2.332l-1.148 2.751a6 6 0 0 0-.325.118c-.108.048-.22.09-.339.138l-2.75-1.098-1.652 1.64 1.139 2.722a2.6 2.6 0 0 0-.146.341c-.049.114-.092.234-.141.349l-2.719 1.164v2.317l2.719 1.153q.126.35.287.689l-1.1 2.75 1.642 1.622 2.735-1.124q.351.18.677.273l1.163 2.749h2.316l1.152-2.762c.115-.046.232-.088.342-.132a4 4 0 0 0 .309-.129l2.791 1.114 1.623-1.655-1.123-2.76q.07-.149.121-.307.054-.158.109-.33l2.789-1.18Zm-10.659 2.057a3.5 3.5 0 0 1-1.113-.743 3.5 3.5 0 0 1-.743-1.106q-.273-.63-.273-1.346c0-.716.091-.929.273-1.354a3.5 3.5 0 0 1 .743-1.109 3.7 3.7 0 0 1 1.113-.754 3.4 3.4 0 0 1 1.367-.278c.482 0 .926.094 1.35.278q.63.281 1.103.754.472.473.746 1.109.27.64.271 1.354c.001.714-.092.927-.271 1.346a3.482 3.482 0 0 1-1.849 1.849 3.4 3.4 0 0 1-1.35.271q-.732 0-1.367-.271" data-name="Layer 1"/></svg>