<svg xmlns="http://www.w3.org/2000/svg" xml:space="preserve" x="0" y="0" version="1.1" viewBox="0 0 32 32"><g fill="#12120D"><path d="M20.5 24.5H10v-17h10.5v2.6H22V6.8c0-.4-.3-.8-.7-.8h-12c-.4 0-.8.4-.8.8v18.5c0 .4.3.8.8.8h12c.4 0 .8-.3.8-.8V22h-1.5v2.5z"/><path d="M18.5 10.8c.3 0 .5-.2.5-.5s-.2-.5-.5-.5h-6.6c-.3 0-.5.2-.5.5s.2.5.5.5zM11.9 11.8c-.3 0-.5.2-.5.5s.2.5.5.5h4.2c.3 0 .5-.2.5-.5s-.2-.5-.5-.5zM21.2 16v-2.6c0-.3-.2-.5-.5-.5s-.5.2-.5.5v3.0999999999999996l.2.1 1.3 1.4c.1.1.2.1.3.1s.2 0 .3-.1c.2-.2.2-.5 0-.7z"/><path d="M20.9 11.4c-2.5 0-4.6 2.1-4.6 4.6s2.1 4.6 4.6 4.6 4.6-2.1 4.6-4.6-2.1-4.6-4.6-4.6m0 8.2c-2 0-3.6-1.6-3.6-3.6s1.6-3.6 3.6-3.6 3.6 1.6 3.6 3.6-1.6 3.6-3.6 3.6"/></g></svg>