<svg xmlns="http://www.w3.org/2000/svg" data-name="Layer 1" version="1.1" viewBox="0 0 32 32"><path stroke-width="0" d="M15.6 25.937c-1.244 0-2.24-1.023-2.24-2.293s1.021-2.293 2.293-2.293c1.246 0 2.268 1.021 2.268 2.293s-1.051 2.293-2.32 2.293ZM16.546 6.086c-2.705 0-4.441 1.312-5.099 1.997l.003.004c-.147.143-.161.393-.019.598l1.035 1.471c.145.206.394.277.58.179l.004.005.017-.014q.011-.002.02-.008l-.004-.005c.482-.378 1.365-1.181 2.804-1.181 1.156 0 2.154.526 2.154 1.812 0 1.077-.998 1.602-1.733 2.127-1.944 1.392-2.733 2.917-2.311 5.045l.131.682h.009c.035.287.235.511.486.511h2.022c.251 0 .45-.224.485-.511h.019q-.002-.04-.005-.08v-.004a9 9 0 0 1-.049-.835c.025-1.103.42-2.389 2.022-3.415.944-.604 2.417-1.576 2.417-3.992 0-2.759-2.312-4.387-4.99-4.387Z"/></svg>