<svg xmlns="http://www.w3.org/2000/svg" data-name="Layer 1" version="1.1" viewBox="0 0 32 32"><path stroke-width="0" d="M21.467 20.423c-1.674 0-3.016-1.384-3.016-3.081 0-1.706 1.342-3.09 3.016-3.09 1.663 0 3.016 1.384 3.016 3.09 0 1.697-1.352 3.081-3.016 3.081m-5.488-3.395c-.601 0-1.095-.501-1.095-1.119s.494-1.121 1.095-1.121c.609 0 1.096.503 1.096 1.121s-.486 1.119-1.096 1.119m-5.618 3.395c-1.664 0-3.016-1.384-3.016-3.081 0-1.706 1.352-3.09 3.016-3.09s3.015 1.384 3.015 3.09c0 1.697-1.352 3.081-3.015 3.081m13.397-7.068s-1.32-1.847-3.411-1.74v-.008c-2.144-3.016-3.798-.362-3.798-.362v-.009a1.17 1.17 0 0 0-1.129 0v.009s-1.656-2.653-3.799.362v.008c-2.092-.106-3.41 1.74-3.41 1.74a4.52 4.52 0 0 0-2.117 3.846c0 2.48 1.969 4.498 4.399 4.498 2.208 0 4.037-1.663 4.358-3.83 0 0 .328.462 1.063.462s1.192-.455 1.192-.455c.321 2.167 2.152 3.823 4.359 3.823 2.43 0 4.4-2.018 4.4-4.498 0-1.631-.85-3.056-2.109-3.846Z"/></svg>