<svg xmlns="http://www.w3.org/2000/svg" viewBox="0 0 32 32"><g fill="#1d1d1b" stroke-width="0" data-name="Layer 1"><path d="M12.87 9.651H14.37V11.151H12.87z"/><path d="M12.87 12.886H14.37V14.386H12.87z"/><path d="M10.37 12.886H11.87V14.386H10.37z"/><path d="M15.37 9.651H16.869999999999997V11.151H15.37z"/><path d="M15.37 12.886H16.869999999999997V14.386H15.37z"/><path d="M17.87 9.651H19.37V11.151H17.87z"/><path d="M17.87 12.886H19.37V14.386H17.87z"/><path d="M20.37 9.651H21.87V11.151H20.37z"/><path d="M20.37 13.636 20.37 12.886 21.12 12.886 20.37 13.636z"/><path d="M12.712 5.962H19.448999999999998V8.465H12.712z"/><path d="M23.694 5.962h-1.745v2.505h1.628v2.595a1.84 1.84 0 0 1 1.539.518 1.85 1.85 0 0 1 0 2.617l-1.539 1.539v7.717l-7.713-.003-1.339 1.339c-.361.36-.834.541-1.308.541-.465 0-.93-.174-1.289-.522l-1.359-1.36H8.534v-2.035l-1.57-1.57a1.85 1.85 0 0 1 0-2.616 1.85 1.85 0 0 1 1.57-.516v-8.25h1.679v-2.5H8.418c-1.314 0-2.384.967-2.384 2.155v15.681c0 1.188 1.069 2.156 2.384 2.156h15.277c1.314 0 2.383-.968 2.383-2.156V8.116c0-1.188-1.069-2.155-2.383-2.155Z"/><path d="M13.217 24.581c-.276 0-.553-.104-.767-.311l-4.957-4.957a1.1 1.1 0 1 1 1.556-1.556l4.167 4.167 9.813-9.813a1.1 1.1 0 1 1 1.556 1.555L13.994 24.258a1.1 1.1 0 0 1-.778.322Z"/></g></svg>