<svg xmlns="http://www.w3.org/2000/svg" data-name="Layer 1" version="1.1" viewBox="0 0 32 32"><path fill="#1d1d1b" stroke-width="0" d="M20.762 17.098h-.023V6.609a.58.58 0 0 0-.579-.58c-.881 0-4.899 3.208-1.081 10.213v.856h-.851v7.522h-.012c0 .044.008.085.012.128v.195h.026c.133.607.629 1.059 1.222 1.059s1.092-.452 1.225-1.059h.061v-7.846ZM15.477 7.979c0-.307-.22-.551-.491-.551-.268 0-.483.238-.49.538h-.002v3.838h-.911V7.979h.005c0-.307-.22-.551-.49-.551-.269 0-.482.238-.489.538h-.002v3.838h-.912V7.979h.006c0-.307-.221-.551-.492-.551-.266 0-.482.238-.489.538h-.002v3.884h.005c.019.974.62 1.803 1.474 2.152v2.165h-.501v8.776h.042a1.379 1.379 0 0 0 2.682 0h.063v-8.776h-.473V14a2.38 2.38 0 0 0 1.469-2.196h-.005V7.979h.005Z"/></svg>