<svg xmlns="http://www.w3.org/2000/svg" data-name="Layer 1" version="1.1" viewBox="0 0 32 32"><path fill="#1a171b" stroke-width="0" d="m25.198 16.286-2.745-9.362a1.226 1.226 0 0 0-1.387-.861L8.504 8.264a1.224 1.224 0 0 0-.975 1.506l2.993 11.859a4 4 0 0 0-.539.1c-1.603.416-2.666 1.67-2.373 2.798.292 1.13 1.83 1.708 3.434 1.293 1.432-.372 2.426-1.409 2.415-2.431l.032-.008-.059-.233c-.008-.041-.004-.084-.015-.127-.01-.038-.032-.07-.045-.107l-3.145-12.465 10.184-1.785 1.782 6.081a4 4 0 0 0-.493.091c-1.602.416-2.667 1.67-2.374 2.798.293 1.13 1.831 1.708 3.434 1.293 1.526-.396 2.547-1.545 2.394-2.628z"/></svg>