<svg xmlns="http://www.w3.org/2000/svg" data-name="Layer 1" version="1.1" viewBox="0 0 32 32"><path fill="#1a171b" stroke-width="0" d="M10.179 24.364q.418-.053.837-.062c.277.007.558.025.832.062l2.769.582c.461.097.932.144 1.402.146.469-.002.938-.05 1.397-.146l2.767-.582q.42-.053.835-.062c.279.007.554.025.834.062l2.77.582c.458.097.926.144 1.395.146v.789a7.7 7.7 0 0 1-1.559-.156l-2.736-.581a8 8 0 0 0-.703-.052 8 8 0 0 0-.702.052l-2.739.581c-.515.107-1.034.156-1.557.156s-1.048-.049-1.561-.156l-2.74-.581a8 8 0 0 0-.701-.052 8 8 0 0 0-.704.052l-2.736.581a7.6 7.6 0 0 1-1.562.156v-.789c.469-.002.939-.05 1.399-.146l2.767-.582ZM18.844 7.138v1.446H13.32V7.138zm.91-.909h-7.343v3.266h7.343z"/><path fill="#1a171b" stroke-width="0" d="M14.871 7.315H17.292V8.133000000000001H14.871z" transform="rotate(-90 16.082 7.724)"/><path fill="none" stroke="#19161a" stroke-linecap="round" stroke-linejoin="round" d="M20.042 6.567 12.079 6.567"/><g fill="#19161a" stroke-width="0"><path d="m24.619 24.946-2.77-.582a8 8 0 0 0-.834-.062 8 8 0 0 0-.835.062l-2.767.582a7 7 0 0 1-1.397.146 7 7 0 0 1-1.402-.146l-2.769-.582a8 8 0 0 0-.832-.062q-.42.01-.837.062l-2.767.582a7 7 0 0 1-1.399.146v.789a7.7 7.7 0 0 0 1.562-.156l2.736-.581a7 7 0 0 1 .704-.052q.351.012.701.052l2.74.581c.513.107 1.036.156 1.561.156s1.042-.049 1.557-.156l2.739-.581a7 7 0 0 1 .702-.052q.352.012.703.052l2.736.581a7.6 7.6 0 0 0 1.559.156v-.789a7 7 0 0 1-1.395-.146ZM8.443 22.922l1.539-.324q.471-.063.951-.072.473.009.949.072l2.76.582c.398.084.808.13 1.22.13.407 0 .815-.046 1.215-.13l2.759-.582q.475-.063.951-.072.48.009.949.072l1.762.371 2.362-4.478c.082-.041.147-.11.147-.207a.25.25 0 0 0-.25-.25h-2.344l-1.377-8.318h.164a.5.5 0 0 0 0-1h-2.445V7.068h.289a.5.5 0 0 0 0-1h-7.963a.5.5 0 0 0 0 1h.331v1.648H9.771a.5.5 0 0 0 0 1h.16l-1.377 8.318H6.228a.25.25 0 0 0-.25.25c0 .089.054.153.124.198l2.343 4.44Zm8.048-15.784h2.353v1.446h-2.353zm-3.171 0h2.353v1.446H13.32zm-2.425 2.578h10.174l1.377 8.318H9.519z"/></g></svg>