<svg xmlns="http://www.w3.org/2000/svg" data-name="Layer 1" version="1.1" viewBox="0 0 32 32"><path fill="#19161a" stroke-width="0" d="M11.734 18.152h.13v.637c0 .277.355.501.793.501s.792-.225.792-.501v-.637h4.981c0 .011-.005.021-.005.032v.669c0 .276.355.501.793.501s.792-.225.792-.501v-.669q-.002-.016-.005-.032h.11c.293 0 .531-.264.531-.59v-1.881a.56.56 0 0 0-.552-.57l-.835-2.456c-.201-.403-.238-.505-.531-.505h-5.781c-.293 0-.413.165-.531.505l-.682 2.435c-.294 0-.531.265-.531.591v1.881c0 .326.237.59.531.59m7.417-2.306a.656.656 0 1 1-.001 1.311.656.656 0 0 1 .001-1.311m-6.398-2.631c0-.331.296-.599.661-.599h4.839c.366 0 .661.268.661.599v1.02c0 .331-.295.598-.661.598h-4.839c-.366 0-.661-.267-.661-.598zm-.078 2.57a.655.655 0 1 1 0 1.31.655.655 0 0 1 0-1.31M21.76 24.335a8 8 0 0 0-.834-.062 8 8 0 0 0-.835.062l-2.766.582a7 7 0 0 1-1.397.146 7 7 0 0 1-1.402-.146l-2.769-.582a8 8 0 0 0-.832-.062q-.42.01-.837.062l-2.767.582a7 7 0 0 1-1.399.146v.789a7.7 7.7 0 0 0 1.562-.156l2.736-.581q.35-.043.704-.052.352.012.701.052l2.74.581c.513.107 1.036.156 1.561.156s1.042-.049 1.557-.156l2.739-.581c.231-.029.469-.045.702-.052q.352.012.703.052l2.736.581a7.6 7.6 0 0 0 1.559.156v-.789a7 7 0 0 1-1.395-.146l-2.77-.582Z"/><path fill="#19161a" stroke-width="0" d="m6.042 18.452 2.343 4.441 1.539-.324q.471-.063.951-.072.473.009.949.072l2.76.582c.398.084.808.13 1.22.13.407 0 .815-.046 1.215-.13l2.759-.582q.475-.063.951-.072.48.009.949.072l1.762.371 2.315-4.388c.117-.021.211-.111.211-.234a.25.25 0 0 0-.25-.25h-2.35l-1.388-8.382h.163a.5.5 0 0 0 0-1h-2.477V7.038h.289a.5.5 0 0 0 0-1h-7.964a.5.5 0 0 0 0 1h.331v1.648H9.71a.5.5 0 0 0 0 1h.16l-1.378 8.318H6.167a.25.25 0 0 0-.25.25c0 .088.054.153.124.198ZM16.401 7.109h2.353v1.446h-2.353zm-3.171 0h2.353v1.446H13.23zm-2.392 2.578h10.173l1.476 8.919-.634 1.429H9.997l-.635-1.43z"/></svg>