<svg xmlns="http://www.w3.org/2000/svg" data-name="Layer 1" version="1.1" viewBox="0 0 32 32"><path stroke-width="0" d="M25.725 14.963c-.227-1.867-1.492-3.152-2.02-3.541-.562-.926-1.41-1.436-2.46-1.644-.756-.15-1.514-.123-2.266-.011-.371.056-.732.019-1.092-.016-.715-.069-1.424-.188-2.1-.452-.232-.091-.455-.208-.712-.236a3.35 3.35 0 0 0-1.718.264c-.224.096-.43.109-.654.075-1.178-.18-2.31-.067-3.38.502-.953.507-1.636 1.272-2.137 2.207-.637 1.192-.931 2.484-1.074 3.818-.084.782-.157 1.566-.12 2.351.065 1.388.42 2.694 1.238 3.838.4.559.907 1.012 1.527 1.326.162.082.284.087.403-.083.212-.302.449-.587.667-.885.146-.2.139-.26-.041-.439-.563-.561-1.023-1.188-1.324-1.931-.4-.989-.433-1.997-.185-3.023.031-.127.089-.234.25-.255.634-.083 1.264-.202 1.903-.252v-1.509a.259.259 0 0 1 .517 0v.44c-.001.755-.002 2.153 0 2.327a.3.3 0 0 0 .014.108c.007-.003.037 0 .095-.006.237-.029 1.452-.363 1.586-.421 1.112-.48 1.893-1.164 2.389-2.09a4.2 4.2 0 0 0 .519-2.055v-.23c.002-.242.004-.471-.034-.696-.019-.111-.048-.144-.106-.177q-.537-.304-1.072-.613l-.755-.434a.4.4 0 0 0-.44-.002l-1.111.496a.258.258 0 1 1-.21-.472l1.09-.485a.91.91 0 0 1 .926.016l.757.434q.533.308 1.069.611a.71.71 0 0 1 .361.541c.045.268.043.532.042.786v.221a4.73 4.73 0 0 1-.581 2.304c-.553 1.032-1.416 1.791-2.64 2.32a6 6 0 0 1-.479.15v2.636c0 .131.007.263-.064.399-.263.084-.546.179-.736.439-.134.184-.21.382-.209.61.002.224-.004.448.001.671.006.253.082.334.335.334q1.511.006 3.022 0c.274 0 .335-.081.336-.397v-4.438l.126.052c.175-.012.327.058.484.124.522.221 1.072.32 1.636.336.684.019 1.353-.094 2.014-.252.43-.102.432-.113.65.254.241.407.495.814.869 1.102.228.176.291.362.266.619-.007.076 0 .154 0 .231-.006.279-.073.351-.356.356-.559.008-1.01.505-.988 1.03.008.188 0 .378 0 .567.002.364.056.419.42.419h2.77c.156 0 .313.008.454-.05.075-.182.086-.368.095-.558.02-.406.054-.812.087-1.217l.12-1.512c.03-.371.042-.747.112-1.111.068-.353.188-.697.267-1.051a16.4 16.4 0 0 0 .37-2.813c.005-.256.015-.492.023-.722.103.276.189.569.228.889.218 1.787.257 2.35.246 3.543a.517.517 0 0 0 .512.522h.005a.517.517 0 0 0 .517-.512c.011-1.237-.031-1.856-.254-3.679zM10.08 13.559a.474.474 0 1 1 0-.947.474.474 0 0 1 0 .947"/></svg>