<svg xmlns="http://www.w3.org/2000/svg" data-name="Layer 1" version="1.1" viewBox="0 0 32 32"><path fill="#1a171b" stroke-width="0" d="M12.092 16.324c-1.459 0-2.271-.958-2.523-1.779-.181-.589-.028-1.325-.01-1.407.052-.237.276-.422.511-.393l4.645.211a.498.498 0 0 1 .471.576c-.014.093-.146.918-.358 1.353-.211.433-.9 1.44-2.735 1.44Zm-1.607-2.559c-.008.167-.002.349.04.487.055.179.389 1.072 1.567 1.072 1.226 0 1.677-.551 1.836-.879a3 3 0 0 0 .161-.517z"/><path fill="#1a171b" stroke-width="0" d="M25.624 17.742c-.931-2.296-3.498-5.084-3.709-5.311-.917-2.759-2.761-4.643-4.961-4.836l.005-.1c0-.599-.392-1.118-.981-1.244l-1.371-.109c-.321-.072-.66.01-.923.223-.299.24-.47.61-.47 1.015v.477c-.469.102-.955.229-1.423.378-2.878.467-4.904 3.913-4.904 8.543v1.72a2.46 2.46 0 0 0-.835 1.834l.009 2.859a2.58 2.58 0 0 0 2.578 2.578h.191c.177.04.36.065.549.065h7.253c.069 0 .134-.015.201-.02l.093-.003c.174-.012.397-.026.56-.12a272 272 0 0 1 2.695-.302l.068-.012c.964-.241 1.686-.818 2.094-1.637.432-.056.97-.174 1.482-.45.92-.497 1.642-1.412 1.93-2.448.227-.814.388-1.819-.13-3.099ZM13.963 7.379c0-.174.071-.334.19-.431.062-.05.162-.104.342-.066l1.371.109c.195.043.342.26.343.484l-.004.082h-.773c-.353 0-.876.054-1.469.154v-.333ZM7.341 19.53c.046-.078.134-.205.252-.326.168-.141.367-.246.586-.31.523-.07 1.386-.072 1.395-.072h5.313c.101.004.217.025.312.053a1.2 1.2 0 0 0-.232.304c-.228.422-.416 1.112-.553 1.616l-.056.206c-.527.113-2.066.269-3.351.215l-.302-.015c-.997-.045-2.934-.134-3.642-.239.023-.43.172-1.245.277-1.433Zm8.041 1.518c.111-.406.294-1.076.466-1.395.068-.126.279-.166.459-.173.176.25.281.553.281.882v2.866a1.54 1.54 0 0 1-1.539 1.539h-.229c.344-.437.562-.979.562-1.578zm-6.744 3.72a1.58 1.58 0 0 1-1.578-1.58l-.004-1.22c.595.078 1.649.144 3.603.234l.302.014c.008 0 .197.006.491.006.718 0 2.053-.032 2.929-.221v1.19a1.58 1.58 0 0 1-1.578 1.578H8.636Zm9.48-1.422c0 .67-.448 1.232-1.059 1.417.327-.427.529-.955.529-1.534v-2.866c0-1.4-1.139-2.539-2.539-2.539H8.637a2.6 2.6 0 0 0-.652.089c-.037.005-.064.024-.099.031v-1.167c0-4.334 1.968-7.602 4.577-7.602h1.077c2.523 0 4.577 3.41 4.577 7.602v6.569Zm1.92 1.051-1.234.133c.194-.354.314-.754.314-1.185v-6.569c0-3.529-1.315-6.492-3.244-7.831 2.506.743 4.134 3.722 4.057 7.672a.375.375 0 0 0 .368.383h.007a.375.375 0 0 0 .375-.367c.075-3.844-1.385-6.843-3.71-8.044 2.554.313 4.573 3.721 4.574 7.887l.178 5.54c0 1.234-.614 2.101-1.686 2.382Zm3.789-4.092c-.112.403-.422.938-.953 1.224-.051.028-.11.044-.165.066l-.165-5.135q-.002-.042-.003-.082c.494.699.956 1.446 1.228 2.117.307.757.196 1.309.057 1.811Z"/></svg>