<svg xmlns="http://www.w3.org/2000/svg" data-name="Layer 1" version="1.1" viewBox="0 0 32 32"><path fill="#1a171b" stroke-width="0" d="M12.75 17.634v.679c0 .414-.308.732-.707.73-.402-.002-.704-.315-.705-.732v-.676c-.224 0-.438.003-.652-.001a1 1 0 0 1-.251-.031.702.702 0 0 1 .169-1.375c.205-.006.411-.002.617-.002h.117v-.702q0-.293.207-.502a.7.7 0 0 1 .768-.153.68.68 0 0 1 .434.641c.006.234.001.469.001.716h.112c.219 0 .438-.005.656.005.34.015.63.318.642.66.013.367-.237.692-.585.729-.219.023-.443.011-.664.015h-.16Z"/><circle cx="19.814" cy="15.261" r=".965" fill="#1a171b" stroke-width="0"/><circle cx="21.517" cy="16.925" r=".965" fill="#1a171b" stroke-width="0"/><circle cx="18.176" cy="16.925" r=".965" fill="#1a171b" stroke-width="0"/><circle cx="19.814" cy="18.599" r=".965" fill="#1a171b" stroke-width="0"/><path fill="#1a171b" stroke-width="0" d="M25.875 21.577q-.031-.259-.07-.516l-.326-2.286q-.091-.665-.193-1.329l-.026-.169a10 10 0 0 0-.225-1.162c-.377-1.381-1.153-2.541-2.306-3.446-1.173-.921-2.492-1.396-3.919-1.414-.689-.008-1.379-.004-2.068-.005V9.933c0-.934-1-1.363-1.968-1.779-.263-.113-.636-.273-.825-.39V6.046h-1.5V7.98c0 .808.842 1.169 1.733 1.552.311.134.865.372 1.061.532v1.183q-.314-.001-.628-.001l-1.108.003a9 9 0 0 0-1.002.051 6.34 6.34 0 0 0-2.638.929c-1.584.994-2.6 2.405-3.018 4.194a11 11 0 0 0-.167.972l-.374 2.627c-.057.403-.113.807-.176 1.209-.088.563-.09 1.041-.005 1.502a3.815 3.815 0 0 0 4.306 3.095c1.3-.185 2.306-.916 2.91-2.117q.445-.887.888-1.777h.723l2.778-.004.027.056c.291.59.581 1.18.883 1.763.687 1.327 1.86 2.058 3.393 2.112h.283c.058-.002.115-.009.189-.02 1.467-.202 2.548-1.033 3.124-2.404.239-.57.321-1.195.245-1.858Zm-1.628 1.277c-.375.892-.993 1.368-1.97 1.505h-.202c-.995-.038-1.663-.452-2.103-1.302-.298-.575-.583-1.155-.87-1.736l-.195-.395a.87.87 0 0 0-.798-.498h-.014l-3.145.004q-.547.001-1.089-.004a.88.88 0 0 0-.808.493q-.524 1.058-1.054 2.113c-.384.764-.967 1.19-1.781 1.307-1.39.192-2.421-.802-2.619-1.882-.053-.289-.049-.606.012-.998q.095-.617.179-1.234l.374-2.628c.039-.28.077-.562.142-.836.329-1.41 1.099-2.479 2.354-3.265a4.8 4.8 0 0 1 2.019-.71c.274-.033.553-.04.829-.041l1.109-.003q.891-.001 1.781-.003 1.196-.001 2.393.013c1.091.013 2.104.381 3.011 1.094.895.702 1.495 1.598 1.785 2.661.089.325.139.661.19.995l.026.174q.1.652.19 1.305l.327 2.297q.036.234.064.469c.048.41.002.772-.137 1.105"/></svg>