<svg xmlns="http://www.w3.org/2000/svg" data-name="Layer 1" version="1.1" viewBox="0 0 32 32"><path fill="#1d1719" stroke-width="0" d="M13.179 9.345 13.179 10.1 25.996 7.87 25.996 7.113 13.179 9.345z"/><path fill="#1d1719" stroke-width="0" d="M10.865 9.748 5.996 10.596 5.996 11.351 10.865 10.503 10.865 9.748z"/><path fill="#1d1719" stroke-width="0" d="M14.765 13.118h-2.194V8.859a.55.55 0 1 0-1.1 0v4.259H9.278a.83.83 0 0 0-.828.827v5.525l.414 5.959c0 .456.372.827.828.827h4.658a.83.83 0 0 0 .828-.827l.414-5.959v-5.525a.83.83 0 0 0-.828-.827Zm0 5.939a.413.413 0 0 1-.414.413H9.693a.413.413 0 0 1-.414-.413V14.36c0-.229.184-.415.414-.415h4.658c.23 0 .414.187.414.415z"/></svg>