<svg xmlns="http://www.w3.org/2000/svg" viewBox="0 0 32 32"><path stroke-width="0" d="M25.847 11.652v.567a.567.567 0 0 1-.566.566h-2.832v2.833a.57.57 0 0 1-.566.567h-.567a.57.57 0 0 1-.566-.567v-2.833h-2.832a.57.57 0 0 1-.566-.566v-.567c0-.311.256-.565.566-.565h2.832V8.254c0-.311.256-.566.566-.566h.567c.311 0 .566.255.566.566v2.833h2.832c.311 0 .566.254.566.565m-9.615 8.394c0 1.693-.813 2.957-2.349 3.655-1.194.542-2.477.601-2.975.601-.091 0-.146-.002-.157-.002l-.094.001c-.777 0-4.652-.168-4.652-3.484 0-3.237 4.162-3.507 5.477-3.51-.056-.283-.187-.385-.314-.483-.122-.095-.262-.202-.262-.438v-.834a3 3 0 0 1-.225.007c-.875 0-3.732-.259-3.732-3.584 0-3.965 4.616-4.124 4.664-4.125h4.615v.142c0 .521-.765.619-1.38.697a5 5 0 0 0-.543.09c1.085.596 1.174 1.6 1.174 2.931 0 1.563-.898 2.314-1.552 2.862-.413.347-.739.62-.739.968 0 .343.448.712.968 1.138.878.72 2.076 1.704 2.076 3.369Zm-4.693-5.665q.183 0 .358-.049c1.023-.28 1.531-1.711 1.133-3.189-.346-1.284-1.277-2.217-2.215-2.217q-.184 0-.359.048c-1.021.281-1.528 1.713-1.132 3.189.347 1.285 1.279 2.219 2.215 2.219Zm2.973 5.972c-.081-1.185-1.423-2.112-3.056-2.112q-.15 0-.301.01c-1.763.121-3.129 1.263-3.046 2.542.085 1.259 1.593 2.224 3.356 2.103 1.765-.12 3.131-1.26 3.046-2.542Z" data-name="Layer 1"/></svg>