<svg xmlns="http://www.w3.org/2000/svg" viewBox="0 0 19.954 19.893"><g stroke-width="0" data-name="Layer 1"><path d="M9.975.04C4.513.04.085 4.468.085 9.929s4.428 9.891 9.89 9.891 9.889-4.43 9.889-9.891S15.436.04 9.975.04m1.015 17.506v-2.175a1 1 0 1 0-2 0v2.179a7.685 7.685 0 0 1-6.637-6.641h2.216a1 1 0 1 0 0-2h-2.21A7.69 7.69 0 0 1 8.99 2.307v2.199a1 1 0 1 0 2 0V2.311a7.686 7.686 0 0 1 6.602 6.604h-2.254a1 1 0 1 0 0 2h2.258a7.69 7.69 0 0 1-6.606 6.63Z"/><path d="M9.947 6.636c-1.818 0-3.297 1.479-3.297 3.297s1.478 3.297 3.297 3.297 3.296-1.478 3.296-3.297-1.477-3.297-3.296-3.297"/></g></svg>