<svg xmlns="http://www.w3.org/2000/svg" data-name="Layer 1" version="1.1" viewBox="0 0 32 32"><g fill="#1d1d1b" stroke-width="0"><path d="M11.101 24.677c-.077-.002-1.139-.034-1.623-.034-.306 0-.608-.303-.698-.419-.204-.296-.783-1.158-.916-1.464-.11-.253-.043-.607-.008-.724.02-.07.436-1.57.489-1.854.06-.319-.096-.857-.127-.962-.024-.056-.545-1.034-.776-1.777a3.1 3.1 0 0 1-.08-1.392c.067-.516.364-1.26.367-1.268a.25.25 0 0 0-.016-.218l-1.4-2.426c-.127-.312-.104-.364.079-.51a.2.2 0 0 1 .127-.046c.11 0 .228.078.264.108l1.774 1.827a.25.25 0 0 0 .264.061c.683-.243 1.53-.312 1.538-.313 3.667-.071 5.345-.489 5.835-.64l3.622 3.598c-.954 1.653-.956 2.178-.934 2.302-.429 2.553-.52 4.525-.521 4.545a.25.25 0 0 0 .231.26c1.441.107 1.504.73 1.527.965.027.267-.433.329-.438.33l-1.778-.002c-.624 0-.819-1.237-.821-1.25-.339-3.937-.462-4.767-.503-5.039-.038-.338-.179-.462-.302-.493a.3.3 0 0 0-.062-.008c-.015 0-.455.072-.455.072q-.175.028-.368.027c-.305 0-.636-.042-.976-.084-.26-.033-.525-.065-.788-.083a7 7 0 0 0-.456-.016c-.49 0-.925.05-1.213.082l-.182.02c-.45.045-.57.308-.57.456s-.025.395-.296 1.176a16 16 0 0 1-.98 2.181c-.211.371-.15.747-.082.91.249.633.471.812.613.852l.479.009c.791.114.785.49.785.506v.554c0 .085-.328.179-.627.181Z"/><path d="M6.548 11.826h.005zm-.015.012a.4.4 0 0 1 .077.039l1.767 1.818a.5.5 0 0 0 .527.122c.646-.231 1.455-.298 1.444-.298 3.392-.066 5.115-.43 5.772-.61l3.382 3.36c-.568 1.008-.873 1.766-.876 2.181-.424 2.628-.512 4.531-.515 4.612a.5.5 0 0 0 .463.521c1.232.091 1.278.546 1.312.707a.5.5 0 0 1-.211.087h-1.771c-.295 0-.522-.686-.57-1.008-.34-3.944-.466-4.789-.507-5.066l-.011-.076a.8.8 0 0 0-.106-.338.5.5 0 0 0-.577-.295s-.414.068-.414.068a2 2 0 0 1-.326.024c-.282 0-.604-.04-.944-.083-.265-.033-.535-.067-.803-.084a7 7 0 0 0-.473-.015c-.506 0-.951.05-1.245.084l-.175.019c-.628.063-.795.472-.794.679 0 .004-.026.377-.283 1.12a16 16 0 0 1-.961 2.139c-.32.56-.12 1.075-.1 1.121.236.597.491.926.782 1.005a.5.5 0 0 0 .132.018h.377c.444.069.565.215.574.22l-.003.055v.41c-.094.03-.249.055-.364.056 0 0-1.131-.035-1.635-.035-.184 0-.421-.222-.485-.302-.289-.417-.789-1.175-.9-1.431-.078-.179-.023-.466.006-.563.045-.161.438-1.58.492-1.868.069-.367-.085-.921-.134-1.082a.5.5 0 0 0-.037-.091c-.005-.01-.515-.968-.739-1.688-.197-.634-.075-1.261-.068-1.304.05-.385.268-.988.348-1.188a.5.5 0 0 0-.031-.435l-1.383-2.396c-.044-.108-.057-.156-.066-.156.008-.009.023-.026.054-.051m-.017-.506a.45.45 0 0 0-.281.099c-.327.259-.293.465-.142.832l1.4 2.426s-.31.776-.379 1.31c0 0-.155.741.086 1.517s.776 1.775.776 1.775.172.569.121.844-.483 1.827-.483 1.827-.155.5.017.896.948 1.517.948 1.517.396.517.896.517 1.62.034 1.62.034.879 0 .879-.431v-.534s.069-.62-1.034-.776h-.414s-.19-.052-.448-.707c0 0-.138-.327.069-.689a16 16 0 0 0 1-2.223c.293-.844.31-1.258.31-1.258s0-.172.345-.207c.278-.028.78-.1 1.37-.1q.213 0 .439.014c.614.041 1.239.168 1.78.168q.214 0 .409-.03l.414-.069.033-.005-.033.005c.003 0 .086.02.103.19.017.172.121.534.517 5.136 0 0 .207 1.465 1.068 1.465h1.81s.707-.086.655-.603-.362-1.086-1.758-1.189c0 0 .086-1.947.517-4.601 0 0-.085-.453 1-2.297l-3.868-3.843s-1.509.591-5.921.677c0 0-.879.069-1.603.327l-1.792-1.844s-.195-.168-.426-.168Z"/></g><g fill="#1d1d1b" stroke-width="0"><path d="M17.575 11.91c2.135-1.72 3.264-3.583 3.815-4.494q.109-.182.188-.309l-.029.468c-.092 1.397.358 1.83.409 1.874 1.413 1.47 3.591 3.748 3.734 3.938.044.058.049.096.015.132-.042.053-.367.557-1.227.967-.208.1-.431.149-.66.149-.512 0-.901-.249-.904-.252a61 61 0 0 1-1.396-.934.25.25 0 0 0-.39.173c-.053.407-.341.98-.527 1.316l-3.029-3.029Z"/><path d="M21.941 7.035h.005zm-.652 1.023c.024 1.07.38 1.469.474 1.549 1.259 1.309 3.261 3.402 3.67 3.86-.088.114-.405.48-1.059.793a1.3 1.3 0 0 1-.553.126c-.431 0-.765-.21-.77-.213-.629-.405-1.385-.927-1.387-.928a.497.497 0 0 0-.779.347c-.032.245-.18.605-.342.932l-2.594-2.594c1.694-1.415 2.73-2.899 3.341-3.87m.436-1.459c-.059 0-.148.065-.282.257-.42.603-1.562 2.951-4.244 5.03l3.457 3.457s.635-1.023.722-1.691c0 0 .765.528 1.4.937 0 0 .442.293 1.041.293.237 0 .499-.046.768-.174.948-.452 1.293-1.013 1.293-1.013s.215-.194.011-.463-3.77-3.974-3.77-3.974-.409-.355-.323-1.669l.043-.689s.01-.3-.117-.3Z"/></g></svg>