<svg xmlns="http://www.w3.org/2000/svg" viewBox="0 0 32 32"><g fill="#1d1d1b" stroke-width="0" data-name="Layer 1"><path d="M14.336 10.935h7.287a.5.5 0 0 0 0-1h-7.287a.5.5 0 0 0 0 1M14.336 13.108h7.287a.5.5 0 0 0 0-1h-7.287a.5.5 0 0 0 0 1"/><path d="M23.756 6.16H11.972c-1.171 0-2.124.967-2.124 2.155v6.334h2.5V8.66H23.38v14.992H12.348v-.003h-2.5v.347c0 1.189.953 2.156 2.124 2.156h11.784c1.171 0 2.124-.968 2.124-2.156V8.315c0-1.188-.953-2.155-2.124-2.155"/><path d="m11.894 21.733 4.49-2.593-4.49-2.593v1.593H7.138a1 1 0 1 0 0 2h4.756z"/></g></svg>