<svg xmlns="http://www.w3.org/2000/svg" viewBox="0 0 32 32"><g fill="#1d1d1b" stroke-width="0" data-name="Layer 1"><path d="M12.829 9.839H14.329V11.339H12.829z"/><path d="M12.829 13.074H14.329V14.574H12.829z"/><path d="M10.329 13.074H11.829V14.574H10.329z"/><path d="M15.329 9.839H16.829V11.339H15.329z"/><path d="M15.329 13.074H16.829V14.574H15.329z"/><path d="M17.829 9.839H19.329V11.339H17.829z"/><path d="M17.829 13.074H19.329V14.574H17.829z"/><path d="M20.329 9.839H21.829V11.339H20.329z"/><path d="M20.329 13.074H21.829V14.574H20.329z"/><path d="M12.671 6.15H19.408V8.653H12.671z"/><path d="M23.653 6.15h-1.745v2.505h1.628v14.987l-7.237-.003v.006H5.992v.341c0 1.189 1.069 2.156 2.384 2.156h15.277c1.313 0 2.383-.968 2.383-2.156V8.305c0-1.189-1.069-2.155-2.383-2.155M8.492 8.65h1.679v-2.5H8.376c-1.315 0-2.384.967-2.384 2.155v6.34h2.5z"/><path d="m16.26 19.137-4.49-2.593v1.593H7.014a1 1 0 1 0 0 2h4.756v1.593z"/></g></svg>