<svg xmlns="http://www.w3.org/2000/svg" viewBox="0 0 32 32"><g stroke-width="0" data-name="Layer 1"><path fill="#1a171b" d="M18.954 6.174 13.025 8.15 13.025 16.234 18.954 10.289 18.954 6.174z"/><path fill="#1a171b" d="M12.037 8.15 7.985 6.796c-1.036-.346-1.877.267-1.877 1.354v13.832c0 .326.083.656.216.973l5.713-5.729z"/><path fill="#1a171b" d="M19.941 6.174 19.941 9.299 22.278 6.956 19.941 6.174z"/><path fill="#1a171b" d="M12.037 25.935 12.037 22.891 9.759 25.175 12.037 25.935z"/><path fill="#1a171b" d="m19.941 23.959 4.05 1.353c1.039.348 1.879-.268 1.879-1.353V10.127c0-.307-.072-.618-.191-.917l-5.737 5.753v8.996Z"/><path fill="#1a171b" d="M13.025 25.935 18.954 23.959 18.954 15.953 13.025 21.899 13.025 25.935z"/><path fill="#fff" d="M25.905 6.15a2 2 0 0 0-2.828.004l-.799.802-2.337 2.343-.987.99-5.929 5.945-.988.991-5.713 5.729-.332.333a2 2 0 1 0 2.832 2.824l.935-.938 2.278-2.284.988-.991 5.929-5.946.987-.99 5.737-5.753.23-.231a2 2 0 0 0-.004-2.828Zm-.527 2.299L8.293 25.583c-.244.245-.565.367-.885.367s-.639-.121-.883-.365a1.25 1.25 0 0 1-.002-1.768L23.608 6.684a1.25 1.25 0 0 1 1.77 1.766Z"/><path fill="#1d1d1b" d="M23.608 6.684 6.523 23.817a1.25 1.25 0 0 0 1.77 1.766L25.378 8.449a1.25 1.25 0 0 0-1.77-1.766Z"/></g></svg>