<svg xmlns="http://www.w3.org/2000/svg" data-name="Layer 1" version="1.1" viewBox="0 0 32 32"><path fill="#1d1c1a" stroke-width="0" d="M25.061 13.765H7.245a.5.5 0 0 0-.5.5v3.646c0 .967.791 1.758 1.758 1.758h15.301c.967 0 1.758-.791 1.758-1.758v-3.646a.5.5 0 0 0-.5-.5Z"/><path fill="#1c1c1a" stroke-width="0" d="M7.286 13.114h6.667c.307 0 .555-.345.555-.773V7.042c0-.427-.248-.773-.555-.773-6.411-.492-7.274 3.114-7.222 6.072 0 .427.249.773.555.773"/><g stroke-width="0"><path fill="#fff" d="M12.395 25.397c-1.29 0-2.34-1.05-2.34-2.341s1.05-2.34 2.34-2.34 2.341 1.05 2.341 2.34-1.05 2.341-2.341 2.341"/><path fill="#1d1c1a" d="M12.395 21.414c.906 0 1.643.737 1.643 1.643s-.737 1.643-1.643 1.643-1.643-.737-1.643-1.643.737-1.643 1.643-1.643m0-1.395a3.039 3.039 0 1 0 0 6.078 3.039 3.039 0 0 0 0-6.078"/></g><g stroke-width="0"><path fill="#fff" d="M19.597 25.397c-1.29 0-2.34-1.05-2.34-2.341s1.05-2.34 2.34-2.34 2.341 1.05 2.341 2.34-1.05 2.341-2.341 2.341"/><path fill="#1d1c1a" d="M19.597 21.414c.906 0 1.643.737 1.643 1.643s-.737 1.643-1.643 1.643-1.643-.737-1.643-1.643.737-1.643 1.643-1.643m0-1.395a3.039 3.039 0 1 0 0 6.078 3.039 3.039 0 0 0 0-6.078"/></g><path fill="#1d1c1a" stroke-width="0" d="M25.943 10.632a2.476 2.476 0 0 0-2.473 2.474h1.5c0-.537.437-.974.973-.974a.75.75 0 0 0 0-1.5"/></svg>