<svg xmlns="http://www.w3.org/2000/svg" viewBox="0 0 32 32"><path fill="#1d1d1b" stroke-width="0" d="M16.139 6.562c-5.264 0-9.963 3.639-9.963 8.616 0 1.766.612 3.499 1.699 4.843.045 1.576-.85 3.838-1.656 5.484 2.161-.404 5.232-1.299 6.625-2.184 7.667 1.935 13.258-2.932 13.258-8.144 0-5.005-4.734-8.616-9.963-8.616Zm1.288 13.678a1.25 1.25 0 1 1-2.5 0v-5.543a1.25 1.25 0 0 1 2.5 0zm-1.277-8.043c-.808 0-1.452-.663-1.452-1.488s.662-1.484 1.486-1.484c.809 0 1.47.663 1.47 1.484s-.68 1.488-1.504 1.488" data-name="Layer 1"/></svg>