<svg xmlns="http://www.w3.org/2000/svg" xml:space="preserve" x="0" y="0" viewBox="0 0 32 32"><path d="m16.469 20.296-4.363 4.327-4.364-4.327 4.364-4.327 1.289 1.278 1.061-1.061-1.541-1.529c-.455-.449-1.196-.416-1.688.071l-4.725 4.686c-.247.245-.39.575-.391.906-.001.3.111.578.32.787l4.866 4.825c.211.209.492.312.78.312.322 0 .654-.129.91-.383l4.722-4.684c.25-.245.393-.577.393-.909 0-.301-.114-.58-.321-.786l-1.55-1.537-1.061 1.061zM25.832 11.445l-4.867-4.826c-.453-.448-1.194-.417-1.688.07l-4.726 4.688a1.3 1.3 0 0 0-.382.777c-.039.345.074.677.312.915l1.552 1.538.53-.53.53-.53-1.301-1.29 4.364-4.328 4.364 4.328-4.363 4.327-1.288-1.277-.53.53-.53.53 1.538 1.525c.21.21.492.314.781.314.322 0 .654-.129.911-.383l4.723-4.685c.249-.245.392-.577.393-.909a1.1 1.1 0 0 0-.323-.784"/><path d="M20.775 12.695c.182-.183.094-.58-.193-.867-.186-.187-.418-.289-.608-.289a.35.35 0 0 0-.259.095L17.449 13.9l-.53.53-.53.53-4.863 4.864c-.106.106-.1.268-.086.354.028.176.13.363.28.513a.97.97 0 0 0 .513.279c.086.014.247.021.354-.086l4.868-4.868.53-.53.53-.53z"/><path fill="none" d="m18.87 15.307 1.288 1.277 4.363-4.327-4.364-4.328-4.364 4.328 1.301 1.29-.53.53-.53.53-1.579 1.579-1.061 1.061-1.289-1.278-4.364 4.327 4.364 4.327 4.363-4.327-1.299-1.289 1.061-1.061 1.579-1.579.53-.53zm-1.416.709-4.868 4.868c-.107.106-.268.1-.354.086a.98.98 0 0 1-.513-.279.98.98 0 0 1-.28-.513c-.014-.087-.021-.248.086-.354l4.863-4.864.53-.53.53-.53 2.266-2.266a.36.36 0 0 1 .259-.095c.19 0 .422.103.608.289.287.287.375.685.193.867l-2.261 2.26-.53.53z"/></svg>