<svg xmlns="http://www.w3.org/2000/svg" viewBox="0 0 32 32"><g fill="#1d1d1b" stroke-width="0" data-name="Layer 1"><path d="M13.929 10.203h10.703a1.5 1.5 0 0 0 0-3H13.929a1.5 1.5 0 1 0 0 3M24.632 14.402H13.929a1.5 1.5 0 1 0 0 3h10.703a1.5 1.5 0 0 0 0-3M24.632 21.603H13.929a1.5 1.5 0 1 0 0 3h10.703a1.5 1.5 0 0 0 0-3M8.324 10.996c1.271 0 2.293-1.022 2.293-2.293S9.621 6.41 8.377 6.41c-1.269 0-2.319 1.023-2.319 2.293s1.021 2.293 2.267 2.293ZM8.323 18.195c1.271 0 2.293-1.021 2.293-2.293s-.996-2.293-2.24-2.293c-1.268 0-2.318 1.023-2.318 2.293s1.021 2.293 2.266 2.293ZM8.378 20.81c-1.269 0-2.32 1.024-2.32 2.293s1.021 2.293 2.268 2.293c1.271 0 2.293-1.022 2.293-2.293s-.996-2.293-2.24-2.293Z"/></g></svg>