<svg xmlns="http://www.w3.org/2000/svg" xml:space="preserve" x="0" y="0" viewBox="0 0 32 32"><g fill="#1E1C19"><path d="M16.048 17.609c3.068 0 5.553-2.495 5.553-5.574s-2.484-5.574-5.553-5.574c-3.066 0-5.553 2.496-5.553 5.574.001 3.079 2.487 5.574 5.553 5.574m0-9.147c1.959 0 3.553 1.603 3.553 3.574s-1.594 3.574-3.553 3.574-3.553-1.603-3.553-3.574c.001-1.971 1.594-3.574 3.553-3.574M20.632 17.873a7.36 7.36 0 0 1-4.584 1.596 7.37 7.37 0 0 1-4.625-1.629c-3.426 1.263-4.957 5.676-4.957 7.69h19.067c.001-1.998-1.541-6.379-4.901-7.657m-9.36 2.287a9.4 9.4 0 0 0 4.777 1.309c1.657 0 3.29-.446 4.715-1.272 1.102.78 1.894 2.115 2.341 3.333H8.892c.452-1.236 1.256-2.592 2.38-3.37"/></g></svg>