<svg xmlns="http://www.w3.org/2000/svg" viewBox="0 0 20.075 19.863"><g stroke-width="0" data-name="Layer 1"><g fill="none"><path d="M6.908 13.591c2.037 0 3.695-1.664 3.695-3.709S8.945 6.169 6.908 6.169 3.214 7.835 3.214 9.882s1.657 3.709 3.694 3.709"/><path d="M6.908 14.591c2.589 0 4.695-2.112 4.695-4.709S9.497 5.169 6.908 5.169 2.214 7.283 2.214 9.882s2.106 4.709 4.694 4.709m0-8.422c2.037 0 3.695 1.666 3.695 3.713s-1.658 3.709-3.695 3.709-3.694-1.664-3.694-3.709 1.657-3.713 3.694-3.713"/></g><g fill="#1f1c18"><path d="M10.391 15.062c-1.034.742-2.25 1.133-3.534 1.133s-2.538-.409-3.569-1.158c-1.884.858-2.931 3.234-3.134 4.736h13.333c-.203-1.486-1.236-3.841-3.097-4.711ZM6.858 13.791c2.037 0 3.695-1.664 3.695-3.709S8.895 6.369 6.858 6.369s-3.694 1.666-3.694 3.713 1.657 3.709 3.694 3.709M19.99.813a.75.75 0 0 0-.75-.749h-.004l-4.153.007a.75.75 0 0 0 .001 1.5h.001l2.346-.004-5.128 5.126a.75.75 0 0 0 1.06 1.061l5.128-5.126.003 2.34a.75.75 0 1 0 1.499-.002L19.988.814Z"/></g></g></svg>