<svg xmlns="http://www.w3.org/2000/svg" viewBox="0 0 32 32"><g stroke-width="0" data-name="Layer 1"><path fill="none" d="M20.27 10.699h-3.607q-.314.002-.314.348v4.66q0 .316.314.315h3.607c.229 0 .348-.104.348-.315v-4.66q-.002-.347-.348-.348M11.855 10.699h-1.439q-.457 0-.457.488v7.74q0 .521.521.521h1.342q.521 0 .522-.49v-7.771q0-.488-.489-.488M23.978 10.699H21.91q-.313.002-.313.348v4.66q0 .316.313.315h2.621c.229 0 .375-.096.348-.315l-.553-4.66c-.03-.239-.118-.348-.348-.348M14.88 10.699h-1.438q-.457 0-.457.488v7.74q0 .521.521.521h1.342q.521 0 .522-.49v-7.771q0-.488-.489-.488Z"/><path fill="#1c1c1a" d="M6.016 21.894H26.016V22.671999999999997H6.016z"/><path fill="#1c1c1a" d="M25.996 20.872v-3.59l-.824-6.803c-.074-.66-.365-.77-1.29-.77H6.033v.988h2.599q.345 0 .348.348v4.66q-.002.316-.348.315H6.033v5.165h19.646q.318 0 .317-.315Zm-13.652-1.914q-.002.49-.522.49H10.48q-.52 0-.521-.521v-7.74q0-.488.457-.488h1.439q.488 0 .489.488zm3.025 0q-.002.49-.522.49h-1.342q-.52 0-.521-.521v-7.74q0-.488.457-.488h1.438q.488 0 .489.488zm5.248-3.252q-.002.316-.348.315h-3.607q-.314 0-.314-.315v-4.66q0-.346.314-.348h3.607q.345 0 .348.348zm3.914.316H21.91q-.313 0-.313-.315v-4.66q0-.346.313-.348h2.068c.229 0 .318.109.348.348l.553 4.66c.027.22-.118.315-.348.315"/></g></svg>