<svg xmlns="http://www.w3.org/2000/svg" data-name="Layer 1" version="1.1" viewBox="0 0 32 32"><path stroke-width="0" d="M19.875 13.246c1.989 0 3.599-1.617 3.599-3.613s-1.61-3.613-3.599-3.613-3.6 1.618-3.6 3.613 1.612 3.613 3.6 3.613M17.309 18.239h8.715c0-1.295-1-4.135-3.177-4.963a4.77 4.77 0 0 1-2.971 1.034 4.78 4.78 0 0 1-2.998-1.056q-.023.011-.044.022a4.5 4.5 0 0 1 1.028 2.839c0 .771-.211 1.487-.552 2.123ZM16.868 20.023a5.64 5.64 0 0 1-3.513 1.223 5.65 5.65 0 0 1-3.544-1.248c-2.625.968-3.799 4.35-3.799 5.893h14.613c0-1.531-1.182-4.888-3.756-5.868Z"/><path stroke-width="0" d="M13.355 20.137c2.208 0 4.005-1.804 4.005-4.021s-1.797-4.021-4.005-4.021-4.006 1.804-4.006 4.021 1.797 4.021 4.006 4.021"/><path fill="none" stroke-width="0" d="M13.355 20.637c1.716 0 3.193-.979 3.953-2.398a4.5 4.5 0 0 0 .552-2.123 4.48 4.48 0 0 0-1.028-2.839c-.827-1.018-2.07-1.682-3.477-1.682-2.484 0-4.506 2.028-4.506 4.521s2.021 4.521 4.506 4.521m0-8.543c2.208 0 4.005 1.804 4.005 4.021s-1.797 4.021-4.005 4.021-4.006-1.804-4.006-4.021 1.797-4.021 4.006-4.021"/></svg>