<svg xmlns="http://www.w3.org/2000/svg" xml:space="preserve" x="0" y="0" version="1.1" viewBox="0 0 32 32"><g fill="#12120D"><path d="M20.8 24.5h-8.9V12.3h.9c.4 0 .8-.3.8-.8v-2l1.2-2.1h6v4.3h1.5v-5c0-.4-.3-.8-.8-.8h-7.2c-.3 0-.5.1-.6.4L12.1 9c-.1.1-.1.3-.1.4v1.4h-.9c-.4 0-.8.3-.8.7v13.7c0 .4.3.8.8.8h10.4c.4 0 .8-.3.8-.8v-4.5h-1.5z"/><path d="m19.9 13.5-.2-.7c-.9.2-1.6.7-2.1 1.2-.9.7-1.6 1.7-1.6 3 0 1.6.9 2.7 2.3 2.7 1.2 0 2.2-.9 2.2-2.1s-.9-2-2-2c-.5 0-.9.1-1.2.4.2-.6.4-1.1.9-1.5.4-.5 1-.8 1.7-1m-1.6 2.9c.6 0 1 .4 1 1.2s-.4 1.3-1.1 1.3-1.1-.5-1.1-1.5v-.6c.5-.3.9-.4 1.2-.4"/><path d="M25.8 15.5 25.1 14.8 23.7 16.1 22.4 14.8 21.7 15.4 23 16.8 21.7 18.1 22.4 18.9 23.7 17.5 25.1 18.9 25.8 18.2 24.4 16.8z"/></g></svg>