<svg xmlns="http://www.w3.org/2000/svg" data-name="Layer 1" version="1.1" viewBox="0 0 32 32"><path fill="none" stroke-width="0" d="M13.444 9.632v1.955a.75.75 0 0 1-.75.75h-.911l-.012 12.184h8.945V7.56h-6.037l-1.235 2.071Zm5.213 9.208a.3.3 0 0 1-.061.006h-5.149a.348.348 0 0 1 0-.696h5.149a.348.348 0 0 1 .061.69m.05-1.511a.3.3 0 0 1-.061.006h-5.15a.347.347 0 1 1 0-.695h5.149a.347.347 0 0 1 .061.689Zm.275-1.884a.347.347 0 0 1-.348.347h-5.149a.347.347 0 1 1 0-.695h5.149c.192 0 .348.155.348.347Z"/><path stroke-width="0" d="M21.467 6.06h-7.213a.75.75 0 0 0-.644.366L12.05 9.04a.75.75 0 0 0-.106.384v1.412h-.91a.75.75 0 0 0-.75.749L10.27 25.27c0 .414.336.75.75.75h10.446a.75.75 0 0 0 .75-.75V6.81a.75.75 0 0 0-.75-.75Zm-.75 18.461h-8.945l.012-12.184h.911a.75.75 0 0 0 .75-.75V9.632l1.235-2.071h6.037z"/><path fill="#1a171b" stroke-width="0" d="M18.597 18.15h-5.149a.348.348 0 0 0 0 .696h5.149a.348.348 0 1 0 0-.696M13.137 15.446c0 .192.156.348.348.348h5.149a.348.348 0 1 0 0-.696h-5.149a.35.35 0 0 0-.348.348M18.646 16.639h-5.149a.348.348 0 0 0 0 .696h5.15a.348.348 0 1 0 0-.696Z"/></svg>