<svg xmlns="http://www.w3.org/2000/svg" data-name="Layer 1" version="1.1" viewBox="0 0 32 32"><path fill="#1d1d1b" stroke-width="0" d="M17.052 6.586a3 3 0 0 0-.721-.104l-.587.003a3 3 0 0 0-.722.106L6.324 9.156a.52.52 0 0 0-.353.473v.939c0 .203.166.368.368.368h19.293a.37.37 0 0 0 .369-.368v-.939a.53.53 0 0 0-.353-.474z"/><rect width="15.048" height="1.994" x="8.46" y="12.273" fill="#1d1d1b" stroke-width="0" rx=".368" ry=".368"/><rect width="2.187" height="6.827" x="8.279" y="15.089" fill="#1d1d1b" stroke-width="0" rx=".368" ry=".368"/><path fill="#1d1d1b" stroke-width="0" d="M12.995 15.089h1.449a.37.37 0 0 1 .369.369v6.09a.37.37 0 0 1-.368.368h-1.449a.37.37 0 0 1-.369-.369v-6.09c0-.203.165-.368.368-.368"/><rect width="2.187" height="6.827" x="16.973" y="15.089" fill="#1d1d1b" stroke-width="0" rx=".368" ry=".368"/><rect width="2.187" height="6.827" x="21.32" y="15.089" fill="#1d1d1b" stroke-width="0" rx=".368" ry=".368"/><path fill="#1d1d1b" stroke-width="0" d="M8.624 22.573c-.203 0-.488.115-.634.256l-.681.657a1 1 0 0 0-.265.624v.708c0 .203.166.368.368.368h17.144a.37.37 0 0 0 .368-.368v-.708a1 1 0 0 0-.266-.624l-.683-.657a1.06 1.06 0 0 0-.634-.255H8.624Z"/></svg>