<svg xmlns="http://www.w3.org/2000/svg" xml:space="preserve" x="0" y="0" viewBox="0 0 32 32"><g fill="#1A171B"><path d="M9.765 12.232a.5.5 0 0 0-.555.709l.758 1.541-.862 1.482a.5.5 0 0 0 .503.746l1.699-.242 1.146 1.277a.5.5 0 0 0 .864-.249l.294-1.689 1.569-.694a.499.499 0 0 0 .031-.899l-1.519-.801-.175-1.705a.5.5 0 0 0-.845-.309l-1.231 1.194zm2.182 1.267.683-.662.098.945a.5.5 0 0 0 .264.392l.842.444-.87.385a.5.5 0 0 0-.29.371l-.163.937-.636-.709a.5.5 0 0 0-.442-.161l-.942.135.478-.822a.5.5 0 0 0 .017-.472l-.42-.854.931.2a.49.49 0 0 0 .45-.129M10.267 11.204a.448.448 0 0 0 .444-.529l-.237-1.324.971-.933a.451.451 0 0 0-.25-.771l-1.336-.182-.587-1.21c-.152-.312-.66-.31-.811 0l-.586 1.21-1.334.182a.45.45 0 0 0-.25.771l.972.933-.238 1.324a.45.45 0 0 0 .656.476l1.188-.635 1.188.635a.43.43 0 0 0 .21.053M9.66 9.92l-.581-.311a.45.45 0 0 0-.424 0l-.58.311.116-.647a.45.45 0 0 0-.132-.403l-.474-.457.652-.089a.46.46 0 0 0 .344-.25l.286-.592.287.592c.067.136.196.23.344.25l.651.089-.473.456a.45.45 0 0 0-.132.403z"/><path d="M19.359 6.714a10.1 10.1 0 0 0-3.732-.594.75.75 0 0 0-.682.493.75.75 0 0 0 .205.816 8.47 8.47 0 0 1 2.33 9.251 8.47 8.47 0 0 1-7.731 5.589.75.75 0 0 0-.682.493.75.75 0 0 0 .205.815 9.983 9.983 0 0 0 6.654 2.549c4.09 0 7.937-2.526 9.414-6.585 1.889-5.185-.795-10.939-5.981-12.827m4.572 12.314a8.45 8.45 0 0 1-4.398 4.801 8.45 8.45 0 0 1-6.505.284 8.3 8.3 0 0 1-1.285-.594 9.95 9.95 0 0 0 7.148-6.325 9.95 9.95 0 0 0-1.41-9.441q.697.128 1.365.371a8.46 8.46 0 0 1 4.802 4.399 8.46 8.46 0 0 1 .283 6.505"/></g></svg>