<svg xmlns="http://www.w3.org/2000/svg" data-name="Layer 1" version="1.1" viewBox="0 0 32 32"><path fill="none" stroke-width="0" d="M3.872 3.935H28.366V28.429H3.872z"/><g fill="#1d1d1b" stroke-width="0"><path d="M8.338 13.989c-1.269 0-2.32 1.024-2.32 2.294s1.021 2.293 2.268 2.294a2.29 2.29 0 0 0 2.294-2.294c0-1.27-.997-2.293-2.241-2.294ZM13.102 13.979a.74.74 0 0 0 .53-.22l5.128-5.126.003 2.34a.75.75 0 0 0 1.499-.002l-.005-4.152a.75.75 0 0 0-.75-.749h-.004l-4.153.007a.75.75 0 0 0 .002 1.5h.001l2.346-.004-5.128 5.126a.75.75 0 0 0 .53 1.281ZM25.732 15.677h-.001l-.001-.001-2.942-2.932a.75.75 0 1 0-1.059 1.063l1.662 1.656-7.25-.002a.75.75 0 0 0 0 1.5l7.25.002-1.652 1.656a.75.75 0 1 0 1.061 1.058l2.933-2.939a.75.75 0 0 0 0-1.061ZM20.257 21.115a.75.75 0 0 0-.75-.749h-.001a.75.75 0 0 0-.749.751l.004 2.347-5.125-5.128a.749.749 0 1 0-1.06 1.061l5.125 5.127-2.339.003a.75.75 0 0 0 .001 1.5l4.153-.005a.75.75 0 0 0 .749-.751v-.003l-.007-4.152Z"/></g></svg>