<svg xmlns="http://www.w3.org/2000/svg" viewBox="0 0 32 32"><g fill="#1d1d1b" stroke-width="0" data-name="Layer 1"><path d="M13.159 16.163c0 1.392.09 3.008.202 4.646-.359-1.077-.988-2.761-1.234-3.299L8.221 8.756H5.909v15.465h2.087V16.32c0-1.212-.067-2.132-.224-4.197.538 1.481.965 2.604 1.459 3.727l3.703 8.372h2.267V8.757h-2.042v7.407Z"/><path d="M25.459 10.618 25.751 8.755 18.523 8.755 18.523 24.22 20.678 24.22 20.678 17.038 24.629 17.038 24.629 15.242 20.678 15.242 20.678 10.618 25.459 10.618z"/></g></svg>