<svg xmlns="http://www.w3.org/2000/svg" data-name="Layer 1" version="1.1" viewBox="0 0 32 32"><path fill="#1d1d1b" stroke-width="0" d="M24.572 14.701c-.281-.592-.881-1.004-1.578-1.004s-1.292.411-1.573 1h-.032v.005a3.85 3.85 0 0 0-2.682 1.13c-.014.014-.018.032-.031.047l-1.1 1.1-1.135-1.135c.55-.985.846-2.096.846-3.254 0-.014-.007-.025-.008-.039V6.199h-1.5v6.39h.008c0 .75-.169 1.469-.469 2.132l-1.058-1.058c.101-.346.169-.702.169-1.073s.018-.001.018-.001V6.145h-1.5v6.358q0 .015-.006.028c-.585-.227-1.297-.112-1.753.344a1.62 1.62 0 0 0 .002 2.283l.066.067-1.171 1.171c-.012.011-.027.014-.038.025a2.36 2.36 0 0 1-1.632.692H6.083v1.499h2.259c.009 0 .016.006.024.006.017 0 .033-.005.05-.005h.01a3.84 3.84 0 0 0 2.455-.946c.055-.032.111-.058.157-.104l1.277-1.277.961.96-5.518 5.518 1.06 1.061 5.519-5.518.954.954-5.573 5.571 1.061 1.061 5.592-5.59a1.606 1.606 0 0 0 2.073-.172 1.616 1.616 0 0 0 .173-2.072l1.154-1.154-.009-.009.005-.003a2.36 2.36 0 0 1 1.653-.693c.282.588.878.998 1.573.998s1.291-.409 1.574-.996l1.545.002.002-1.5zm-6.481 5.076c-.42.42-1.156.419-1.576 0l-4.971-4.971a1.117 1.117 0 0 1-.002-1.576c.21-.21.49-.326.788-.326s.578.115.788.325l4.973 4.973a1.117 1.117 0 0 1 0 1.576Zm4.903-3.079a1.25 1.25 0 0 1 0-2.5c.688 0 1.252.562 1.252 1.251s-.562 1.249-1.252 1.249"/></svg>