<svg xmlns="http://www.w3.org/2000/svg" data-name="Layer 1" version="1.1" viewBox="0 0 32 32"><path fill="#1a171b" stroke-width="0" d="M23.026 7.38c-.616-.662-1.717-.632-2.216-.58v-.305a.5.5 0 0 0-.499-.499h-8.433a.5.5 0 0 0-.499.499v.31c-.468-.055-1.632-.112-2.271.575-.269.288-.542.819-.317 1.716.519 2.077.942 3.745.952 3.745.006.1.131 1.427 2.225 1.761a1 1 0 0 0 .079.006c.036 0 .07-.011.104-.019a4.71 4.71 0 0 0 3.15 2.071v3.846h.054a1.77 1.77 0 0 0-1.053 1.618v.435h-1.855c-.275 0-.5.225-.5.5v2.404c0 .275.225.5.5.5h7.291c.275 0 .5-.225.5-.5v-2.404c0-.275-.225-.5-.5-.5h-1.886v-.435c0-.723-.434-1.342-1.053-1.618h.004v-3.829a4.7 4.7 0 0 0 3.236-2.079c.017.002.033.009.051.009a1 1 0 0 0 .079-.006c2.099-.335 2.219-1.668 2.21-1.668s.432-1.702.965-3.838c.224-.896-.049-1.428-.317-1.716Zm-12.299 5.308s-.432-1.701-.966-3.835c-.092-.369-.065-.636.079-.791.308-.331 1.157-.31 1.54-.249v3.512q.002.008.003.016v.68c0 .52.104 1.011.26 1.478-.824-.26-.902-.72-.916-.811m11.647-3.834c-.533 2.134-.965 3.835-.979 3.915-.003.022-.079.445-.837.707.15-.461.252-.943.252-1.454V7.809c.403-.055 1.19-.064 1.485.255.145.155.171.422.079.791Z"/></svg>