<svg xmlns="http://www.w3.org/2000/svg" data-name="Layer 1" version="1.1" viewBox="0 0 32 32"><g fill="#1d1d1b" stroke-width="0"><path d="M17.663 20.069a.36.36 0 1 0 .719 0 .36.36 0 0 0-.719 0M17.806 12.963c1.461 0 2.649-1.188 2.649-2.65s-1.188-2.649-2.649-2.649-2.65 1.188-2.65 2.649 1.188 2.65 2.65 2.65m0-4.3c.909 0 1.649.74 1.649 1.649s-.74 1.65-1.649 1.65-1.65-.74-1.65-1.65.74-1.649 1.65-1.649"/><path d="M22.678 13.755h-1.309l-.019-.002-.01.002h-6.891a2.652 2.652 0 0 0-2.447-3.668 2.65 2.65 0 0 0-2.447 3.668h-.44a2.006 2.006 0 0 0-2.004 2.003v8.53c0 1.104.899 2.004 2.004 2.004h13.563a2.007 2.007 0 0 0 2.004-2.004v-8.53a2.006 2.006 0 0 0-2.004-2.003m-10.676-2.668c.91 0 1.65.74 1.65 1.649 0 .376-.132.728-.361 1.019h-2.578a1.63 1.63 0 0 1-.36-1.019c0-.909.74-1.649 1.649-1.649m10.162 13.389a.815.815 0 0 1-.814.814l-.01.002H9.114c-.554 0-1.004-.45-1.004-1.004v-8.53c0-.553.45-1.003 1.004-1.003h1.357l.01.002.01-.002h10.868a.814.814 0 0 1 .805.812v2.709h-4.307c-.943 0-1.711.805-1.711 1.794s.768 1.794 1.711 1.794h4.307v2.611Zm1.518-.188c0 .441-.29.805-.685.939.105-.23.168-.483.168-.752v-2.611h.518v2.424Zm0-3.225h-5.824c-.502 0-.91-.445-.91-.993s.408-.993.91-.993h5.824zm0-2.787h-.518v-2.709c0-.267-.061-.519-.165-.748a.99.99 0 0 1 .683.938zM12.228 9.226a.4.4 0 0 0 .4-.4v-2.06a.4.4 0 0 0-.8 0v2.06c0 .221.18.4.4.4M14.094 9.916a.4.4 0 0 0 .4-.4v-2.75a.4.4 0 0 0-.8 0v2.75c0 .221.18.4.4.4"/></g></svg>