<svg xmlns="http://www.w3.org/2000/svg" xml:space="preserve" x="0" y="0" version="1.1" viewBox="0 0 32 32"><g fill="#12120D"><path d="M21 24.5H10.6v-17H21V11h1.5V6.8c0-.4-.3-.8-.8-.8h-12c-.3 0-.6.4-.6.8v18.5c0 .4.3.8.8.8h12c.4 0 .8-.3.8-.8v-4.6H21z"/><path d="M19.1 10.8c.3 0 .5-.2.5-.5s-.2-.5-.5-.5h-6.6c-.3 0-.5.2-.5.5s.2.5.5.5zM12.5 11.8c-.3 0-.5.2-.5.5s.2.5.5.5h4.3c.3 0 .5-.2.5-.5s-.2-.5-.5-.5zM19.5 19.6c.1 0 .2.1.2.1.1 0 .3-.1.4-.2l4.2-6.5c.1-.2.1-.5-.1-.6s-.5-.1-.6.1L19.3 19c-.1.2-.1.5.2.6M19.3 16.5c.9 0 1.6-.9 1.6-2.1s-.7-2.1-1.6-2.1-1.6.9-1.6 2.1.7 2.1 1.6 2.1m0-3.3c.3 0 .7.5.7 1.2s-.4 1.2-.7 1.2-.7-.5-.7-1.2.4-1.2.7-1.2M24.2 15.6c-.9 0-1.6.9-1.6 2.1s.7 2.1 1.6 2.1 1.6-.9 1.6-2.1-.6-2.1-1.6-2.1m0 3.2c-.3 0-.7-.5-.7-1.2s.4-1.2.7-1.2.7.5.7 1.2-.3 1.2-.7 1.2"/></g></svg>