<svg xmlns="http://www.w3.org/2000/svg" xml:space="preserve" x="0" y="0" viewBox="0 0 32 32"><g fill="#1D1D1B"><path d="M15.926 25.385c-2.688 0-4.934-.324-6.672-.964-1.861-.686-2.804-1.608-2.804-2.74 0-.499.203-1.007.623-1.551l.45-.594c.828-1.074 1.378-1.909 1.636-2.478.245-.555.369-1.207.369-1.941.007-.117.135-2.452.399-3.372.279-.959.595-1.679.963-2.2.884-1.273 2.144-2.037 3.748-2.271.104-.682.561-1.063 1.288-1.063s1.184.382 1.288 1.063c1.604.233 2.864.998 3.749 2.275.371.521.683 1.24.953 2.197.261.921.388 3.254.393 3.354q.002 1.128.379 1.958c.261.569.812 1.403 1.64 2.478l.453.597c.418.544.621 1.05.621 1.549 0 1.133-.944 2.055-2.808 2.74-1.742.639-3.986.963-6.668.963m-8.66-4.197q-.105.258-.105.493c0 .805.787 1.503 2.339 2.073 1.659.609 3.822.921 6.427.921 2.598 0 4.76-.312 6.423-.921 1.555-.57 2.343-1.269 2.343-2.073a1.3 1.3 0 0 0-.082-.437c-2.524-.996-5.673-1.567-8.666-1.567q-.454 0-.889.011.004.138.001.256l-.001.104c0 .791-.248 1.483-.735 2.055-.51.579-1.132.871-1.855.871a2.42 2.42 0 0 1-1.896-.854c-.392-.438-.653-1.098-.73-1.817-.84.219-1.821.582-2.574.885m3.272-1.042c.05.601.256 1.161.562 1.504.362.413.809.611 1.365.611.518 0 .948-.205 1.318-.626.377-.439.561-.961.561-1.588l.002-.116c.001-.071.003-.147 0-.219a26 26 0 0 0-3.808.434m5.406-1.178c2.738 0 5.608.466 8.041 1.29l-.223-.292c-.869-1.13-1.434-1.984-1.719-2.613-.296-.646-.444-1.398-.444-2.235-.001-.005-.127-2.335-.366-3.179-.245-.865-.531-1.532-.85-1.982-.829-1.196-1.986-1.854-3.537-2.014a.356.356 0 0 1-.319-.354c0-.557-.23-.669-.601-.669s-.602.112-.602.669a.355.355 0 0 1-.317.354c-1.553.16-2.709.817-3.535 2.012-.324.456-.605 1.106-.863 1.988-.242.841-.369 3.17-.37 3.194.001.815-.145 1.565-.432 2.212-.285.631-.848 1.487-1.72 2.621l-.15.197c.716-.261 1.496-.517 2.152-.654q.008-.003.014-.004c1.354-.284 2.875-.461 4.526-.518h.016c.419-.015.856-.023 1.299-.023"/><path d="M15.926 25.685c-2.725 0-5.004-.33-6.775-.982-1.991-.733-3-1.75-3-3.021 0-.569.224-1.137.685-1.734l.448-.592c.813-1.054 1.351-1.867 1.602-2.42.227-.513.343-1.125.343-1.817.002-.039.13-2.481.41-3.456.288-.991.618-1.74 1.006-2.29.894-1.287 2.153-2.081 3.742-2.361.19-.702.74-1.1 1.539-1.1.8 0 1.35.398 1.539 1.1 1.591.28 2.85 1.076 3.745 2.368.388.545.714 1.294.995 2.286.277.981.402 3.396.403 3.421q.001 1.071.352 1.85c.252.551.792 1.364 1.604 2.417l.455.599c.458.597.682 1.163.682 1.731 0 1.271-1.011 2.288-3.004 3.021-1.775.65-4.053.98-6.771.98m0-19.175c-.576 0-.909.273-.992.81l-.034.219-.22.032c-1.517.221-2.71.942-3.545 2.144-.351.497-.652 1.188-.921 2.113-.219.762-.356 2.689-.387 3.304 0 .762-.133 1.455-.394 2.048-.271.598-.833 1.451-1.672 2.54l-.449.592c-.379.49-.562.938-.562 1.369 0 .994.877 1.821 2.607 2.459 1.705.627 3.915.945 6.568.945 2.647 0 4.855-.318 6.564-.945 1.732-.638 2.611-1.465 2.611-2.459 0-.43-.183-.877-.559-1.366l-.454-.598c-.838-1.087-1.401-1.94-1.673-2.534-.269-.598-.406-1.298-.406-2.083-.001-.009-.126-2.37-.382-3.271-.261-.926-.559-1.614-.908-2.106-.837-1.208-2.03-1.932-3.548-2.152l-.22-.032-.032-.219c-.083-.537-.416-.81-.992-.81m0 18.465c-2.636 0-4.833-.316-6.53-.939-1.682-.618-2.535-1.41-2.535-2.354q0-.295.128-.607l.048-.117.118-.047c.698-.28 1.717-.664 2.608-.897l.338-.089.037.348c.07.661.309 1.262.655 1.648.44.501 1.002.754 1.673.754.641 0 1.175-.252 1.63-.77.437-.513.661-1.139.661-1.856l.001-.106a5 5 0 0 0-.001-.243l-.01-.303.303-.007q.438-.01.896-.011c3.021 0 6.219.579 8.776 1.588l.126.05.046.128c.067.188.1.363.1.538 0 .944-.854 1.736-2.539 2.354-1.703.623-3.899.938-6.529.938m-8.424-3.558a1 1 0 0 0-.042.265c0 .83 1.165 1.433 2.143 1.792 1.63.599 3.758.902 6.323.902 2.559 0 4.685-.304 6.319-.902.979-.359 2.146-.962 2.146-1.792a1 1 0 0 0-.026-.21c-2.467-.95-5.527-1.494-8.422-1.494q-.297 0-.588.005l-.001.068c0 .861-.271 1.618-.807 2.246-.571.649-1.271.976-2.083.976-.851 0-1.564-.321-2.122-.955-.363-.405-.629-.988-.752-1.636-.724.211-1.501.501-2.088.735m4.962 1.144c-.64 0-1.175-.24-1.591-.713-.347-.39-.579-1.001-.635-1.678l-.023-.268.264-.051a26 26 0 0 1 3.852-.439l.301-.014.012.302q.003.1.001.2l-.002.151c0 .698-.207 1.282-.633 1.778-.426.487-.946.732-1.546.732m-1.594-2.173c.074.435.237.819.453 1.062.306.349.668.511 1.141.511.431 0 .779-.167 1.093-.524.326-.38.486-.836.486-1.39v-.02a26 26 0 0 0-3.173.361m13.949.47-.931-.316c-2.426-.821-5.247-1.274-7.944-1.274-.44 0-.873.008-1.288.023-1.62.056-3.112.226-4.452.504l-.052.013c-.544.113-1.253.33-2.111.643l-.962.35.771-1.011c.86-1.118 1.411-1.956 1.685-2.563.269-.606.406-1.31.405-2.088.001-.034.126-2.39.382-3.277.268-.918.565-1.598.907-2.079.877-1.267 2.104-1.967 3.749-2.137a.055.055 0 0 0 .048-.056c0-.652.295-.969.901-.969s.9.316.9.969c0 .029.022.053.052.057 1.643.169 2.87.87 3.751 2.141.337.477.638 1.174.893 2.071.218.768.342 2.659.375 3.221.002.837.142 1.547.419 2.15.272.601.823 1.436 1.684 2.556zm-8.875-2.19c2.432 0 4.964.359 7.233 1.021-.693-.932-1.154-1.659-1.406-2.213-.312-.682-.471-1.476-.471-2.359-.067-1.13-.195-2.533-.355-3.097-.235-.832-.507-1.468-.806-1.892-.776-1.12-1.863-1.737-3.323-1.888a.657.657 0 0 1-.588-.653c0-.369-.076-.369-.301-.369-.226 0-.302 0-.302.369a.655.655 0 0 1-.585.652c-1.462.151-2.548.768-3.321 1.885-.305.429-.573 1.05-.822 1.901-.231.8-.358 3.102-.358 3.124.001.849-.153 1.634-.457 2.32-.243.535-.674 1.224-1.312 2.093.458-.147.858-.258 1.209-.334l.072-.016c1.375-.289 2.915-.466 4.569-.523q.655-.02 1.324-.021"/></g></svg>