<svg xmlns="http://www.w3.org/2000/svg" xml:space="preserve" x="0" y="0" viewBox="0 0 32 32"><path fill="none" d="M13.62 7.626h-6v6h6zm-1.2 4.8h-3.6v-3.6h3.6zM13.596 18.49h-6v6h6zm-1.2 4.801h-3.6v-3.6h3.6zM18.544 13.631h6v-6h-6zm1.2-4.8h3.6v3.6h-3.6z"/><path fill="#1A171B" d="M6.12 15.126h9v-9h-9zm1.5-7.5h6v6h-6z"/><path fill="#1A171B" d="M8.82 8.826H12.42V12.426H8.82z"/><path fill="#1A171B" d="M26.044 6.131h-9v9h9zm-1.5 7.5h-6v-6h6z"/><path fill="#1A171B" d="M19.744 8.831H23.344V12.431H19.744z"/><path fill="#1A171B" d="M6.096 25.99h9v-9h-9zm1.5-7.5h6v6h-6z"/><path fill="#1A171B" d="M8.796 19.691H12.395999999999999V23.291H8.796z"/><path fill="#1C1C1A" d="m26.077 25.273-.007-4.153a.75.75 0 0 0-.75-.749h-.001a.75.75 0 0 0-.749.751l.004 2.347-5.125-5.128a.75.75 0 1 0-1.061 1.061l5.126 5.128-2.34.003a.75.75 0 0 0 .001 1.5h.001l4.152-.005a.75.75 0 0 0 .749-.751v-.004"/></svg>