<svg xmlns="http://www.w3.org/2000/svg" data-name="Layer 1" version="1.1" viewBox="0 0 32 32"><path fill="#1d1d1b" stroke-width="0" d="M25.735 19.818c-.213-.472-.552-.805-.979-.963-.728-.272-1.447.045-1.505.071l-4.446 1.787a2 2 0 0 0-.153-.181c-.565-.577-1.341-.579-1.411-.574h-2.968c-.437 0-.771-.23-.771-.23-1.512-1.154-3.152-.799-4.059-.446-.084-.607-.585-1.083-1.214-1.083H7.038a1.25 1.25 0 0 0-1.248 1.248v5.486c0 .688.56 1.247 1.248 1.247h1.191c.555 0 1.01-.37 1.171-.872.715-.596 1.548-.317 1.577-.307l1.945.749c.87.322 1.631.435 2.27.435 1.466 0 2.288-.594 2.316-.615l8.04-5.123a.5.5 0 0 0 .187-.628ZM8.477 24.934a.247.247 0 0 1-.247.247H7.039a.247.247 0 0 1-.248-.247v-5.486c0-.137.111-.248.248-.248H8.23c.136 0 .247.111.247.248zm8.469-.191c-.055.039-1.344.931-3.671.071l-1.942-.748a2.7 2.7 0 0 0-.89-.143c-.286 0-.618.043-.96.176l.021-3.756c.571-.275 2.069-.829 3.397.185.06.044.605.431 1.371.431h2.976c.009 0 .428.003.693.279a.9.9 0 0 1 .216.428h-3.738a.5.5 0 0 0 0 1h4.272a.5.5 0 0 0 .499-.477 3 3 0 0 0-.021-.545l4.475-1.799c.152-.067.587-.222.922.041l-7.62 4.856Z"/><path fill="#1d1d1b" stroke-width="0" d="M17.153 19.583c3.666 0 6.648-2.982 6.648-6.648s-2.982-6.648-6.648-6.648-6.648 2.982-6.648 6.648 2.982 6.648 6.648 6.648m0-12.297c3.114 0 5.648 2.534 5.648 5.648s-2.534 5.648-5.648 5.648-5.648-2.534-5.648-5.648 2.534-5.648 5.648-5.648"/><path fill="#1d1d1b" stroke-width="0" d="M14.845 16.871a.403.403 0 0 0 .55-.135l4.483-7.431a.401.401 0 0 0-.686-.414l-4.483 7.431a.4.4 0 0 0 .136.55ZM14.992 13.234c.924 0 1.647-.997 1.647-2.271s-.724-2.271-1.647-2.271-1.647.998-1.647 2.271.724 2.271 1.647 2.271m0-3.741c.4 0 .847.604.847 1.471s-.446 1.47-.847 1.47-.847-.604-.847-1.47.446-1.471.847-1.471M17.834 14.829c0 1.273.724 2.271 1.647 2.271s1.647-.998 1.647-2.271-.724-2.271-1.647-2.271-1.647.997-1.647 2.271m2.494 0c0 .867-.446 1.471-.847 1.471s-.847-.604-.847-1.471.446-1.47.847-1.47.847.604.847 1.47"/></svg>