<svg xmlns="http://www.w3.org/2000/svg" data-name="Layer 1" version="1.1" viewBox="0 0 32 32"><path fill="#12120d" stroke-width="0" d="M18.363 19.361c1.087-.609 1.869-1.564 1.869-2.89 0-1.956-1.826-2.846-3.303-3.586l-2.13-1.064c-.63-.327-.956-.848-.956-1.565 0-1.303 1.174-1.868 2.281-1.868.862 0 1.742.352 2.146 1.156a1 1 0 0 0 .088.203l.004.01h.001a.925.925 0 0 0 1.622-.887l.007-.004c-.674-1.456-2.304-2.042-3.803-2.042-2.086 0-4.172 1.195-4.172 3.52 0 1.174.674 1.999 1.674 2.564-1.261.609-2.195 1.521-2.195 3.042 0 1.151.587 2.129 1.586 2.651l2.651 1.391c1.457.761 2.174 1.13 2.174 2.174 0 1.412-1.13 1.998-2.347 1.998-1.197 0-2.173-.477-2.628-1.58a1 1 0 0 0-.104-.294l-.005-.016h-.003a.926.926 0 0 0-1.669.781h-.002c.717 1.848 2.412 2.674 4.281 2.674 2.216 0 4.433-1.195 4.433-3.694 0-1.217-.565-2.064-1.5-2.673Zm-1.368-.738-1.934-.934c-.869-.413-1.868-.892-1.868-2.021 0-1.108.999-1.521 1.847-1.868l1.26.63c.913.456 2.108 1.086 2.108 2.303 0 .826-.695 1.586-1.412 1.891Z"/></svg>