<svg xmlns="http://www.w3.org/2000/svg" data-name="Layer 1" version="1.1" viewBox="0 0 32 32"><path stroke-width="0" d="M15.952 10.191q.866 0 1.467-.601.6-.598.6-1.467c0-.869-.2-1.068-.6-1.467q-.6-.6-1.467-.601c-.867-.001-1.066.2-1.469.601q-.598.6-.596 1.467c.002.867.195 1.068.596 1.467q.604.6 1.469.601M19.169 21.849l-1.353-3.719v-6.624a.52.52 0 0 0-.509-.534h-2.982c-.022 0-.041.011-.062.014-.033 0-.065.013-.099.021-.014.005-.028.006-.042.012a.6.6 0 0 0-.249.145v.05l-2.009 2.008a.6.6 0 0 0-.133.199.6.6 0 0 0-.109.342v2.91c0 .306.211.554.471.554h.559c.26 0 .471-.248.471-.554v-2.387l.734-.733-.035 4.952v3.644l-.667 1.834a.493.493 0 0 0 .302.63l.862.313a.495.495 0 0 0 .637-.287l.78-2.143c.004-.01.002-.02.004-.03a.5.5 0 0 0 .041-.196v-3.256h.272l1.254 3.444v2.82c0 .364.224.659.5.659h.917c.276 0 .5-.295.5-.659v-3.073c0-.048-.014-.09-.021-.135a.6.6 0 0 0-.033-.221Z"/><path stroke-width="0" d="M19.657 14.866h-1.42v1.612h1.42c.307 0 .555-.211.555-.471v-.672c0-.26-.248-.471-.555-.47Z"/></svg>