<svg xmlns="http://www.w3.org/2000/svg" data-name="Layer 1" version="1.1" viewBox="0 0 32 32"><path fill="none" stroke-width="0" d="m13.388 14.348.176.484c.103-.006.205-.016.309-.016.156 0 .31.011.463.023l.165-1.324zM14.236 16.678c.1.275.002.559-.212.675-.018.01-.031.026-.05.033l-.545.198c-.254.092-.548-.075-.656-.373l-.296-.813c-1.716.586-2.961 2.196-2.961 4.107 0 2.403 1.955 4.358 4.358 4.358s4.357-1.955 4.357-4.358c0-.488-.099-.948-.247-1.387a4.34 4.34 0 0 0-3.814-2.941l-.12-.012.091.25z"/><path stroke-width="0" d="M17.14 10.338c.566 0 1.042-.208 1.437-.625q.586-.62.587-1.522c.001-.902-.197-1.11-.587-1.524-.394-.417-.87-.625-1.437-.625s-1.044.208-1.438.625c-.392.414-.583.921-.583 1.524s.191 1.11.583 1.522q.592.625 1.438.625"/><path fill="#1a161a" stroke-width="0" d="M17.847 16.695a5.5 5.5 0 0 0-3.532-1.68 5 5 0 0 0-.441-.022c-.083 0-.164.009-.246.012l.019.053.187.515.215.591q.06.008.12.012a4.34 4.34 0 0 1 3.814 2.941c.148.438.247.899.247 1.387 0 2.403-1.955 4.358-4.357 4.358s-4.358-1.955-4.358-4.358c0-1.911 1.245-3.521 2.961-4.107l-.197-.541-.184-.506-.019-.051a5.52 5.52 0 0 0-3.715 5.206c0 3.039 2.473 5.513 5.513 5.513s5.512-2.473 5.512-5.513c0-.48-.068-.943-.184-1.387a5.5 5.5 0 0 0-1.046-2.077 5 5 0 0 0-.308-.346Z"/><path stroke-width="0" d="M21.819 18.556c0-.011-.219-.914-.219-.914-.072-.362-.549-.598-.872-.598l-2.353-.003a5.7 5.7 0 0 1 1.008 2.077h.477l.923 4.32c0 .348.252.629.562.629h.834c.312 0 .562-.281.562-.629l-.923-4.882ZM12.278 15.856l.197.541.296.813c.109.298.403.465.656.373l.545-.198c.019-.007.032-.024.05-.033.214-.116.313-.399.212-.675l-.096-.263-.091-.25-.215-.591-.187-.515-.019-.053-.063-.173-.176-.484 1.113-.832-.165 1.324a5.67 5.67 0 0 1 3.547 1.635l.786-4.805c.038-.406-.361-.912-1.061-.906l-1.891-.004c-.169-.016-.447.119-.662.296v-.002l-3.224 2.683a.46.46 0 0 0-.143.285c-.029.115.002.221.048.349l.278.764.06.165.019.051.184.506Z"/></svg>