<svg xmlns="http://www.w3.org/2000/svg" data-name="Layer 1" version="1.1" viewBox="0 0 32 32"><path fill="none" stroke-width="0" d="M14.43 24.814a4.363 4.363 0 0 0 4.357-4.358c0-.488-.099-.949-.247-1.387a4.36 4.36 0 0 0-1.459-2.046l-6.136 6.022a4.34 4.34 0 0 0 3.485 1.768ZM13.033 16.348c-1.697.58-2.929 2.162-2.956 4.046l3.267-3.206c-.004-.01-.011-.016-.015-.026l-.296-.813ZM15.058 13.467l-1.113.832.176.484.063.173c.082-.004.163-.012.246-.012.149 0 .295.011.441.022.214.017.418.068.625.109l.156-.154a6 6 0 0 0-.76-.131z"/><path stroke-width="0" d="M17.698 10.288c.566 0 1.042-.208 1.437-.625q.586-.62.587-1.522c.001-.902-.197-1.11-.587-1.524-.394-.417-.87-.625-1.437-.625s-1.044.208-1.438.625c-.392.414-.583.921-.583 1.524s.191 1.11.583 1.522q.591.625 1.438.625"/><path fill="#1a161a" stroke-width="0" d="m13.033 16.348-.197-.541-.184-.506-.018-.051a5.52 5.52 0 0 0-3.715 5.206c0 .336.035.664.093.985l1.066-1.046c.027-1.884 1.259-3.466 2.956-4.046ZM18.541 19.069c.148.438.247.899.247 1.387a4.363 4.363 0 0 1-4.357 4.358c-1.43 0-2.69-.702-3.485-1.768l-.837.821a5.5 5.5 0 0 0 4.322 2.101 5.52 5.52 0 0 0 5.512-5.513c0-.48-.068-.943-.184-1.387a5.5 5.5 0 0 0-1.046-2.077 5 5 0 0 0-.308-.346c-.152-.159-.326-.294-.496-.434l-.827.811a4.35 4.35 0 0 1 1.459 2.046ZM14.43 14.944c-.083 0-.164.009-.246.012l.019.053.187.515.17.468.935-.918c-.207-.041-.411-.092-.625-.109a5 5 0 0 0-.441-.022Z"/><path stroke-width="0" d="M22.158 17.593c-.073-.362-.549-.598-.872-.598l-2.353-.003a5.7 5.7 0 0 1 1.008 2.077h.477l.923 4.32c0 .348.252.629.562.629h.834c.312 0 .562-.281.562-.629l-.923-4.882c0-.011-.219-.914-.219-.914ZM12.836 15.807l.197.541.296.813q.007.014.015.026l1.218-1.195-.17-.468-.187-.515-.019-.053-.063-.173-.176-.484 1.113-.832-.165 1.324c.26.021.51.076.76.131l3.544-3.478c-.071-.363-.431-.734-1.032-.729l-1.89-.004c-.169-.016-.447.119-.662.296v-.002l-3.224 2.683a.46.46 0 0 0-.143.285c-.029.115.002.221.048.349l.278.764.06.165.018.051zM18.44 16.425l.143-.876-.548.538c.136.112.28.214.404.338Z"/><path fill="#19161a" stroke-width="0" d="M25.679 6.832a.74.74 0 0 0-.535-.224.74.74 0 0 0-.525.215L19.13 12.21l-2.92 2.866-.139.136-.985.967-.336.329-1.04 1.021-3.578 3.512-.987.968-2.754 2.703a.74.74 0 0 0-.224.527c-.002.2.074.39.215.533a.77.77 0 0 0 1.061.009l2.37-2.326.856-.84 5.988-5.877.85-.834.137-.135 1.077-1.057 6.95-6.821a.74.74 0 0 0 .224-.527.74.74 0 0 0-.215-.533Z"/><path fill="#fff" stroke-width="0" d="M26.036 6.483c-.469-.477-1.295-.485-1.768-.016l-5.071 4.976-3.544 3.478-.156.154-.935.918-1.218 1.195-3.267 3.206-1.066 1.046-2.971 2.916a1.24 1.24 0 0 0-.373.881 1.24 1.24 0 0 0 .357.887c.236.241.554.374.893.374.33 0 .641-.128.876-.358l2.315-2.272.837-.821 6.136-6.022.827-.811.128-.125.548-.538 7.437-7.299c.238-.234.371-.547.373-.881a1.24 1.24 0 0 0-.357-.887Zm-7.316 8.231-1.077 1.057-.137.135-.85.834-5.988 5.877-.856.84-2.37 2.326a.77.77 0 0 1-1.061-.009.75.75 0 0 1-.215-.533c.002-.2.08-.388.224-.527l2.754-2.703.987-.968 3.578-3.512 1.04-1.021.336-.329.985-.967.139-.136 2.92-2.866 5.489-5.387a.74.74 0 0 1 .525-.215.746.746 0 0 1 .75.757.74.74 0 0 1-.224.527l-6.95 6.821Z"/></svg>