<svg xmlns="http://www.w3.org/2000/svg" xml:space="preserve" x="0" y="0" viewBox="0 0 32 32"><path fill="none" d="M24.563 6.565H7.351a.787.787 0 0 0-.786.786v17.212c0 .433.353.786.786.786h17.212a.787.787 0 0 0 .786-.786V7.351a.787.787 0 0 0-.786-.786m-8.69 1.303q.51-.538 1.239-.538c.488 0 .898.179 1.238.538q.505.535.506 1.313-.001.777-.506 1.311c-.34.359-.75.538-1.238.538q-.73 0-1.239-.538-.505-.534-.503-1.311c0-.52.165-.957.503-1.313M14.298 24.54a4.756 4.756 0 0 1-4.75-4.75 4.75 4.75 0 0 1 3.201-4.485l-.052-.143-.24-.658c-.04-.11-.067-.201-.042-.3a.4.4 0 0 1 .123-.246l2.778-2.312v.001c.185-.152.425-.269.57-.255l1.629.004c.603-.005.947.431.914.781l-.677 4.14a4.88 4.88 0 0 0-3.056-1.408 5 5 0 0 0-.399-.02c-.09 0-.178.009-.266.014l.054.149c.071-.003.14-.011.212-.011.128 0 .254.009.38.019a4.73 4.73 0 0 1 3.044 1.448q.139.144.266.298c.42.518.729 1.126.901 1.79.1.383.158.781.158 1.195a4.754 4.754 0 0 1-4.748 4.749m7.157-1.681h-.719c-.267 0-.485-.242-.485-.542l-.795-3.722h-.411a4.9 4.9 0 0 0-.869-1.789l2.027.002c.279 0 .689.203.751.515 0 0 .189.778.189.788l.796 4.206c.001.3-.215.542-.484.542"/><path fill="none" d="m13.879 14.485.152.417c.089-.005.176-.014.266-.014.135 0 .267.01.399.02l.142-1.141zM14.61 16.493c.086.237.002.481-.183.581-.015.008-.027.022-.043.029l-.47.171c-.219.079-.472-.064-.565-.322l-.255-.701c-1.478.505-2.551 1.892-2.551 3.539a3.76 3.76 0 0 0 3.755 3.755 3.76 3.76 0 0 0 3.754-3.755c0-.42-.085-.817-.213-1.195a3.74 3.74 0 0 0-3.286-2.534l-.104-.01.078.215z"/><path fill="none" d="M24.59 6.57H7.378a.787.787 0 0 0-.786.786v17.212c0 .433.353.786.786.786H24.59a.787.787 0 0 0 .786-.786V7.356a.787.787 0 0 0-.786-.786m-8.717 1.297q.51-.538 1.239-.538c.488 0 .898.179 1.238.538q.505.535.506 1.313-.001.777-.506 1.311c-.34.359-.75.538-1.238.538q-.73 0-1.239-.538-.505-.534-.503-1.311c0-.519.165-.956.503-1.313M14.298 24.54a4.756 4.756 0 0 1-4.75-4.75 4.75 4.75 0 0 1 3.201-4.485l-.052-.143-.24-.658c-.04-.11-.067-.201-.042-.3a.4.4 0 0 1 .123-.246l2.778-2.312v.001c.185-.153.425-.269.57-.255l1.629.004c.603-.005.947.431.914.781l-.677 4.14a4.88 4.88 0 0 0-3.056-1.408l.142-1.141-.959.717.152.417.054.149c.071-.003.14-.01.212-.01.128 0 .254.009.38.019a4.73 4.73 0 0 1 3.044 1.448q.139.144.266.298c.42.518.729 1.126.901 1.79.1.383.158.781.158 1.195a4.754 4.754 0 0 1-4.748 4.749m7.157-1.681h-.719c-.267 0-.485-.242-.485-.542l-.795-3.722h-.411a4.9 4.9 0 0 0-.869-1.789l2.027.002c.279 0 .689.203.751.515 0 0 .189.778.189.788l.796 4.206c.001.3-.215.542-.484.542"/><path fill="none" d="M14.61 16.492c.086.237.002.481-.183.581-.015.008-.027.022-.043.029l-.47.171c-.219.08-.472-.064-.565-.322l-.255-.701c-1.478.505-2.551 1.892-2.551 3.539a3.76 3.76 0 0 0 3.755 3.755 3.76 3.76 0 0 0 3.754-3.755c0-.42-.085-.817-.213-1.195a3.74 3.74 0 0 0-3.286-2.534l-.104-.01.078.215z"/><path fill="#04070B" d="M17.113 11.03q.73 0 1.238-.538a1.84 1.84 0 0 0 .506-1.311q-.001-.778-.506-1.313a1.64 1.64 0 0 0-1.238-.538q-.73 0-1.239.538c-.339.356-.504.793-.504 1.312 0 .517.165.956.503 1.311q.51.54 1.24.539"/><path fill="#1D1920" d="M17.987 16.806a4 4 0 0 0-.266-.298 4.74 4.74 0 0 0-3.044-1.448 5 5 0 0 0-.38-.019c-.072 0-.141.008-.212.01l.017.046.162.444.185.509q.051.007.104.01a3.74 3.74 0 0 1 3.286 2.534c.128.378.213.775.213 1.195a3.76 3.76 0 0 1-3.754 3.755 3.76 3.76 0 0 1-3.755-3.755c0-1.647 1.073-3.034 2.551-3.539l-.17-.466-.159-.436-.016-.044a4.75 4.75 0 0 0-3.201 4.485c0 2.619 2.13 4.75 4.75 4.75a4.755 4.755 0 0 0 4.749-4.75c0-.413-.059-.812-.158-1.195a4.8 4.8 0 0 0-.902-1.788"/><path fill="#04070B" d="M20.956 17.324c-.062-.312-.473-.515-.751-.515l-2.027-.002c.404.523.702 1.13.869 1.789h.411l.795 3.722c0 .3.218.542.485.542h.719c.269 0 .485-.242.485-.542l-.796-4.206c-.001-.01-.19-.788-.19-.788M12.924 15.785l.17.466.255.701c.094.257.347.401.565.322l.47-.171c.017-.006.028-.02.043-.029.185-.1.269-.344.183-.581l-.082-.227-.078-.215-.185-.509-.162-.444-.017-.046-.054-.149-.152-.417.959-.717-.142 1.141a4.9 4.9 0 0 1 3.056 1.408l.677-4.14c.033-.35-.311-.786-.914-.781l-1.629-.004c-.146-.013-.385.103-.57.255v-.001l-2.778 2.312a.4.4 0 0 0-.123.246c-.025.099.002.19.042.3l.24.658.052.143.016.044z"/><path fill="#010100" d="M24.59 6.07H7.378a1.29 1.29 0 0 0-1.286 1.286v17.212a1.29 1.29 0 0 0 1.286 1.286H24.59a1.29 1.29 0 0 0 1.286-1.286V7.356A1.29 1.29 0 0 0 24.59 6.07m.786 18.497a.787.787 0 0 1-.786.786H7.378a.787.787 0 0 1-.786-.786V7.356c0-.433.353-.786.786-.786H24.59c.433 0 .786.353.786.786z"/></svg>