<svg xmlns="http://www.w3.org/2000/svg" version="1.1" viewBox="0 0 32 32"><path fill="none" d="m11.118 14.542.176.484c.103-.006.205-.016.309-.016.156 0 .31.011.463.023l.165-1.324zM11.966 16.872c.1.276.002.559-.212.675-.018.01-.031.026-.05.033l-.545.199c-.254.092-.548-.075-.656-.373l-.296-.813c-1.716.586-2.961 2.196-2.961 4.107 0 2.403 1.955 4.358 4.358 4.358s4.357-1.955 4.357-4.358c0-.487-.099-.948-.247-1.387a4.34 4.34 0 0 0-3.814-2.941l-.12-.012.091.25.096.263Z"/><path fill="#060300" d="M14.87 10.532c.566 0 1.042-.208 1.437-.625q.586-.62.587-1.522c.001-.902-.197-1.11-.587-1.524-.394-.417-.87-.625-1.437-.625s-1.044.208-1.438.625c-.392.414-.583.921-.583 1.524s.191 1.11.583 1.522q.591.625 1.438.625"/><path fill="#1b1616" d="M15.885 17.236a5 5 0 0 0-.308-.346 5.5 5.5 0 0 0-3.532-1.68 5 5 0 0 0-.441-.022c-.083 0-.164.009-.246.012l.019.053.188.515.215.591.12.012a4.34 4.34 0 0 1 3.814 2.941c.148.438.247.899.247 1.387 0 2.403-1.955 4.358-4.357 4.358s-4.358-1.955-4.358-4.358c0-1.911 1.245-3.521 2.961-4.107l-.197-.541-.184-.506-.019-.051A5.52 5.52 0 0 0 6.092 20.7c0 3.04 2.473 5.513 5.513 5.513s5.512-2.473 5.512-5.513c0-.48-.068-.943-.184-1.387a5.5 5.5 0 0 0-1.046-2.077Z"/><path fill="#060300" d="M19.331 17.837c-.072-.362-.549-.598-.872-.598l-2.353-.003a5.7 5.7 0 0 1 1.008 2.077h.477l.923 4.32c0 .348.253.629.562.629h.834c.312 0 .562-.281.562-.629l-.923-4.882c0-.011-.219-.914-.219-.914ZM10.008 16.051l.197.541.296.813c.109.298.403.465.656.373l.545-.199c.02-.007.032-.023.05-.033.214-.116.313-.399.212-.675l-.096-.263-.091-.25-.215-.591-.188-.515-.019-.053-.063-.173-.176-.484 1.113-.832-.165 1.324a5.67 5.67 0 0 1 3.547 1.635l.786-4.805c.038-.406-.361-.912-1.061-.906l-1.891-.004c-.169-.016-.447.119-.662.296v-.002l-3.224 2.683a.46.46 0 0 0-.143.285c-.029.115.002.221.049.349l.278.764.06.165.019.051.184.506Z"/><path fill="#12120d" d="M25.157 7.127c-.571-.542-1.368-.829-2.303-.829-1.096 0-2.291.32-3.218.84-.017.01-.015.022-.026.033a.7.7 0 0 1 .37-.122.691.691 0 0 1 .304 1.313c.005-.002.013.003.018 0 .72-.388 1.416-.63 2.245-.63 1.078 0 1.83.693 1.83 1.686 0 1.052-.588 1.492-1.21 1.958-.212.158-.43.322-.632.514-.768.71-1.157 1.634-1.157 2.746 0 .296.027.599.083.918.003.015.016.026.023.039-.013-.053-.033-.104-.033-.161a.709.709 0 0 1 1.417-.044c0-.008.007-.013.006-.022a5 5 0 0 1-.019-.401c0-.963.343-1.732 1.019-2.286q.057-.045.163-.12c.547-.391 2.002-1.427 2.002-3.223 0-.9-.304-1.663-.879-2.209ZM22.358 17.337a1.227 1.227 0 1 0 0 2.454 1.227 1.227 0 0 0 0-2.454"/><path fill="#12120d" d="m19.63 8.183-.016.01-.01-.017-.086-.585.013-.01c.161-.123-.042-.293.078-.41a.68.68 0 0 0-.325.573c0 .384.311.695.695.695.11 0 .211-.031.303-.077-.18.067-.475-.287-.652-.179"/><path fill="#12120d" d="M20.674 7.744a.695.695 0 0 0-.695-.695.67.67 0 0 0-.37.122c-.121.117.082.287-.078.41l-.013.01.086.585.01.017.016-.01c.177-.109.473.245.652.179a.69.69 0 0 0 .391-.618ZM22.628 15.875l-.828.07-.004-.014c-.037-.15-.253-.212-.316-.338a.7.7 0 0 0 .68.551.713.713 0 0 0 .713-.713c0-.016-.008-.028-.009-.044-.006.196-.289.252-.242.464l.005.023Z"/><path fill="#12120d" d="M22.161 14.719a.713.713 0 0 0-.713.713c0 .057.02.108.033.161.063.126.278.188.316.338l.004.014.828-.07-.005-.023c-.048-.212.235-.268.242-.464a.71.71 0 0 0-.704-.669Z"/></svg>