<svg xmlns="http://www.w3.org/2000/svg" data-name="Layer 1" version="1.1" viewBox="0 0 32 32"><path fill="none" stroke-width="0" d="M14.775 16.177c.071.195.001.396-.151.478-.013.007-.022.019-.036.024l-.387.141c-.18.065-.388-.053-.465-.265l-.21-.577a3.085 3.085 0 0 0-2.1 2.913c0 1.704 1.386 3.091 3.091 3.091s3.09-1.386 3.09-3.091c0-.346-.07-.673-.175-.983a3.08 3.08 0 0 0-2.704-2.086l-.085-.009.064.177.068.186Z"/><path stroke-width="0" d="M16.835 11.681q.6 0 1.019-.443.416-.439.416-1.079c0-.64-.14-.787-.416-1.081q-.417-.443-1.019-.443c-.602 0-.741.148-1.02.443q-.416.44-.414 1.081c.002.641.136.787.414 1.079q.42.444 1.02.443"/><path fill="#1a161a" stroke-width="0" d="M17.555 16.435a3.89 3.89 0 0 0-2.723-1.436c-.104-.008-.207-.016-.313-.016-.059 0-.116.006-.175.009l.014.038.133.365.153.419q.043.006.085.009a3.08 3.08 0 0 1 2.704 2.086c.105.311.175.638.175.983 0 1.704-1.386 3.091-3.09 3.091s-3.091-1.386-3.091-3.091c0-1.356.883-2.497 2.1-2.913l-.14-.384-.131-.359-.013-.036a3.91 3.91 0 0 0-2.635 3.691c0 2.155 1.753 3.909 3.909 3.909s3.908-1.754 3.908-3.909c0-.34-.048-.668-.13-.983a3.9 3.9 0 0 0-.742-1.473Z"/><path stroke-width="0" d="M19.998 16.861c-.051-.257-.389-.424-.619-.424l-1.668-.002c.332.431.578.93.715 1.473h.338l.655 3.063c0 .247.179.446.399.446h.591c.221 0 .399-.199.399-.446l-.655-3.462c0-.008-.155-.648-.155-.648M13.387 15.594l.14.384.21.577c.077.212.285.33.465.265l.387-.141c.014-.005.023-.017.036-.024.152-.082.222-.283.151-.478l-.068-.186-.064-.177-.153-.419-.133-.365-.014-.038-.045-.123-.125-.343.789-.59-.117.939a4.02 4.02 0 0 1 2.515 1.159l.557-3.407c.027-.288-.256-.647-.752-.643l-1.341-.003c-.12-.011-.317.084-.469.21l-2.286 1.901a.33.33 0 0 0-.101.202c-.021.082.001.157.034.247l.197.542.043.117.013.036z"/><path fill="#221e1f" stroke-width="0" d="M7.632 15.915c0-1.445.218-2.724.648-3.846a40.6 40.6 0 0 1 2.474-5.109H9.29q-1.678 2.609-2.322 4.233a12.1 12.1 0 0 0-.956 4.699q0 2.572.773 4.304 1.138 2.579 2.505 4.642h1.464q-.909-1.52-1.301-2.32-1.822-3.744-1.821-6.603M25.08 11.268q-.644-1.624-2.322-4.232h-1.464a41 41 0 0 1 2.474 5.109c.431 1.121.648 2.4.648 3.846q0 2.858-1.821 6.602-.392.8-1.301 2.32h1.464q1.367-2.064 2.505-4.642.773-1.732.773-4.304 0-2.401-.956-4.699"/></svg>