<svg xmlns="http://www.w3.org/2000/svg" viewBox="0 0 32 32"><g fill="#1a171b" stroke-width="0" data-name="Layer 1"><path d="M6.88 10.475c.229 0 .41.188.41.409v1.646c0 .229-.183.41-.41.41h-.819v2.465h.819c.229 0 .41.185.41.408v1.645a.41.41 0 0 1-.41.41h-.819v5.013c.406 0 .815-.046 1.217-.13l2.762-.582q.471-.063.951-.072.472.009.949.072l2.76.582c.398.084.808.13 1.22.13.407 0 .815-.046 1.215-.13l2.759-.582q.475-.063.951-.072.48.009.949.072l1.762.371 2.465-4.672h-9.898l-.411-2.464h1.438v-2.465h-5.053l-.41-2.465h.576a.41.41 0 0 0 0-.818H6.062v.818h.819Zm5.177 6.981v-1.645c0-.224.18-.407.411-.407h2.143c.203 0 .377.145.404.34l.275 1.646q.006.035.007.066c0 .225-.188.41-.409.41h-2.421a.41.41 0 0 1-.411-.41Zm-4.028 0v-1.645a.41.41 0 0 1 .412-.407h2.463a.41.41 0 0 1 .41.407v1.645c0 .225-.186.41-.41.41H8.441a.41.41 0 0 1-.412-.41m0-4.927v-1.646a.41.41 0 0 1 .412-.409h2.147c.198 0 .37.147.404.346l.27 1.639a.407.407 0 0 1-.404.48h-2.42a.41.41 0 0 1-.41-.41ZM10.152 23.954q.412-.052.826-.061c.274.007.551.024.821.061l2.733.574c.455.096.92.143 1.384.145a6.8 6.8 0 0 0 1.379-.145l2.731-.574q.414-.052.824-.061c.275.007.547.024.823.061l2.734.574a6.8 6.8 0 0 0 1.377.145v.779a7.6 7.6 0 0 1-1.539-.154l-2.701-.573a9 9 0 0 0-.694-.052c-.23.007-.465.023-.693.052l-2.704.573q-.763.156-1.537.154c-.774-.002-1.034-.049-1.541-.154l-2.705-.573a8 8 0 0 0-.692-.052 7 7 0 0 0-.695.052l-2.701.573a7.6 7.6 0 0 1-1.542.154v-.779a7 7 0 0 0 1.381-.145z"/></g></svg>