<svg xmlns="http://www.w3.org/2000/svg" xml:space="preserve" x="0" y="0" viewBox="0 0 32 32"><path fill="none" d="M15.976 17.076c-.895 0-1.621.726-1.621 1.621 0 .583.31 1.089.771 1.375v2.53a.85.85 0 1 0 1.7 0v-2.53c.462-.286.772-.792.772-1.375a1.62 1.62 0 0 0-1.622-1.621"/><path fill="#1D1D1B" d="M13.104 11.098c0-1.584 1.289-2.873 2.872-2.873s2.872 1.289 2.872 2.873v2.691h2.199v-2.691c0-2.797-2.274-5.072-5.071-5.072s-5.071 2.275-5.071 5.072v2.691h2.199zM21.751 14.364H10.249c-.99 0-1.8.81-1.8 1.8v8.031c0 .99.81 1.8 1.8 1.8H21.75c.99 0 1.8-.81 1.8-1.8v-8.031c.001-.99-.809-1.8-1.799-1.8m-4.926 5.708v2.53a.85.85 0 1 1-1.7 0v-2.53a1.62 1.62 0 0 1-.771-1.375 1.621 1.621 0 0 1 3.242 0 1.61 1.61 0 0 1-.771 1.375"/></svg>