<svg xmlns="http://www.w3.org/2000/svg" data-name="Layer 1" version="1.1" viewBox="0 0 32 32"><path fill="#12120d" stroke-width="0" d="M12.254 8.727c.043 0 .088-.008.132-.015l7.136-1.251a.765.765 0 1 0-.265-1.508l-7.135 1.25a.768.768 0 0 0 .132 1.524"/><path fill="#12120d" stroke-width="0" d="M6.009 10.251 6.009 11.006 25.878 7.525 25.878 6.769 6.009 10.251z"/><path fill="#12120d" stroke-width="0" d="M25.05 15.131h-4.097l-3.066-5.783-1.159.201 2.96 5.582h-7.446l2.746-5.278-1.436.252-2.617 5.026H6.838a.83.83 0 0 0-.828.827v9.109c0 .456.372.827.828.827h18.213a.83.83 0 0 0 .828-.827v-9.109a.83.83 0 0 0-.828-.827Zm-12.693 5.383a.415.415 0 0 1-.417.413H7.251a.413.413 0 0 1-.414-.413v-4.141c0-.228.184-.415.414-.415h4.689c.23 0 .417.187.417.415zm6.346 0a.414.414 0 0 1-.415.413h-4.69a.416.416 0 0 1-.416-.413v-4.141c0-.228.188-.415.416-.415h4.69c.229 0 .415.187.415.415zm6.347 0a.413.413 0 0 1-.413.413h-4.692a.416.416 0 0 1-.415-.413v-4.141c0-.228.187-.415.415-.415h4.692c.229 0 .413.187.413.415z"/></svg>