<svg xmlns="http://www.w3.org/2000/svg" data-name="Layer 1" version="1.1" viewBox="0 0 32 32"><path fill="#060300" stroke-width="0" d="M15.598 21.731c-.506 0-.911-.416-.911-.933s.416-.933.933-.933c.507 0 .923.416.923.933s-.427.933-.944.933ZM15.983 13.655c-1.101 0-1.807.534-2.074.812v.002c-.059.058-.064.16-.006.243l.421.598c.059.084.16.113.236.073l.002.002.007-.006q.005 0 .008-.003l-.002-.002c.196-.154.555-.481 1.141-.481.47 0 .876.214.876.737 0 .438-.406.652-.705.865-.791.567-1.112 1.187-.94 2.052l.053.277h.004c.014.117.096.208.198.208h.823c.102 0 .183-.091.197-.208h.008q0-.016-.002-.032v-.002a4 4 0 0 1-.02-.34c.01-.449.171-.972.823-1.389.384-.246.983-.641.983-1.624 0-1.122-.941-1.785-2.03-1.785Z"/><path fill="#1a180a" stroke-width="0" d="M24.239 10.61H19.82V9.05c0-.403-.167-.785-.461-1.053-.286-.262-.645-.392-.987-.357l-4.881.002a1.35 1.35 0 0 0-1.047.355c-.293.268-.461.65-.461 1.053v1.56H7.298c-.826 0-1.496.67-1.496 1.496v10.796a1.5 1.5 0 0 0 1.496 1.496H24.24a1.5 1.5 0 0 0 1.496-1.496V12.106a1.5 1.5 0 0 0-1.496-1.496ZM13.43 9.005l5.023.046v1.56h-5.097zM8.709 22.902H7.301l-.004-10.791h1.412zm13.079-.004-12.079.003V12.11h12.079zm1 0V12.11h1.446l.004 10.787h-1.451Z"/></svg>