<svg xmlns="http://www.w3.org/2000/svg" xml:space="preserve" x="0" y="0" viewBox="0 0 32 32"><g fill="#1C1C1A"><path d="M13.681 8.575 13.681 9.331 25.946 7.183 25.946 6.426z"/><path d="M6.077 9.908 6.077 10.663 11.366 9.737 11.366 8.981z"/><path d="M13.09 7.974c-.059-.24-.266-.422-.524-.422s-.465.182-.524.422c-.01.042-.026.082-.026.127v3.967l-2.978.513a.55.55 0 0 0-.456.542v10.483c0 .304.246.55.55.55h3.733a.55.55 0 1 0 0-1.1H9.683v-9.47l2.978-.513a.55.55 0 0 0 .456-.542V8.102c-.001-.046-.016-.086-.027-.128"/><path d="M11.622 16.868q.534 0 .903-.37.37-.367.369-.901 0-.535-.369-.903a1.23 1.23 0 0 0-.903-.37q-.533 0-.903.37a1.22 1.22 0 0 0-.368.903c0 .355.12.658.368.901q.37.37.903.37M15.467 21.079h-.518c-.009 0-.016.006-.025.006h-2.116V17.72a.32.32 0 0 0-.312-.329H10.66a.32.32 0 0 0-.314.329v4.292c0 .182.141.329.314.329h1.836c.011 0 .019-.005.028-.005H14.7l.4 2.709c0 .206.156.375.349.375h.518c.192 0 .349-.169.349-.375l-.5-3.589c0-.208-.157-.377-.349-.377"/></g></svg>