<svg xmlns="http://www.w3.org/2000/svg" data-name="Layer 1" version="1.1" viewBox="0 0 32 32"><path fill="#1a171b" stroke-width="0" d="M24.829 7.745c0-.672-.43-1.101-1.102-1.101H8.307c-.672 0-1.101.429-1.101 1.101L6.104 24.269c0 .672.43 1.1 1.102 1.1h17.623c.672 0 1.102-.429 1.102-1.1zm-4.187 4.55c-1.588 3.827-3.156 5.638-4.873 5.638q-.079 0-.159-.005c-2.169-.14-3.549-3.255-4.255-5.438a1.634 1.634 0 0 1 .44-3.21c.905 0 1.639.732 1.639 1.639 0 .508-.235.956-.598 1.257.71 2.099 1.798 4.186 2.871 4.255.493.038 1.732-.4 3.484-4.558a1.638 1.638 0 1 1 2.768-1.184c0 .795-.566 1.456-1.316 1.606Z"/></svg>