<svg xmlns="http://www.w3.org/2000/svg" xml:space="preserve" x="0" y="0" viewBox="0 0 32 32"><path fill="none" d="M24.533 6.519H7.321a.787.787 0 0 0-.786.786v17.212c0 .433.353.786.786.786h17.212a.787.787 0 0 0 .786-.786V7.305a.787.787 0 0 0-.786-.786M12.632 10.32a1.4 1.4 0 0 1 1.062-.461q.626 0 1.061.461.433.458.434 1.125-.001.666-.434 1.123a1.4 1.4 0 0 1-1.061.461q-.626 0-1.062-.461-.433-.457-.431-1.123-.002-.668.431-1.125m-1.351 14.285a4.075 4.075 0 0 1-4.07-4.07 4.07 4.07 0 0 1 2.743-3.843l-.044-.122-.205-.564c-.034-.094-.057-.172-.036-.258a.34.34 0 0 1 .105-.21l2.38-1.981v.001c.159-.131.364-.23.489-.219l1.396.003c.517-.004.811.369.783.669l-.58 3.547a4.2 4.2 0 0 0-2.618-1.207 4 4 0 0 0-.342-.017c-.077 0-.152.008-.228.012l.047.128c.061-.003.12-.009.182-.009.11 0 .218.008.326.016a4.06 4.06 0 0 1 2.836 1.496c.359.444.624.965.772 1.533.085.328.136.67.136 1.024a4.08 4.08 0 0 1-4.072 4.071m6.133-1.44h-.616c-.229 0-.415-.208-.415-.464l-.682-3.189h-.351a4.2 4.2 0 0 0-.744-1.533l1.737.002c.239 0 .59.174.644.441 0 0 .162.667.162.675l.682 3.604c-.001.257-.186.464-.417.464m4.833-9.7a1.22 1.22 0 0 1-.877.353q-.509 0-.862-.353a1.2 1.2 0 0 1-.368-.877q0-.509.368-.863.353-.367.862-.368.509 0 .877.368.354.354.353.863 0 .51-.353.877m2.304-5.656v.002h-1.529q-.212-.013-.212.212v2.036l.042.113q.042.099.17.099h1.528v2.74h-1.3q-.34.001-.368-.367v-.056q0-.636-.438-1.075a1.44 1.44 0 0 0-1.074-.453q-.622 0-1.06.453a1.44 1.44 0 0 0-.453 1.075v.07q0 .34-.366.353h-3.338q-.282 0-.282-.283v-2.021l.89-2.928a.47.47 0 0 1 .283-.297 1 1 0 0 1 .368-.113h7.14v.44z"/><path fill="#010000" d="M24.533 6.019H7.321a1.29 1.29 0 0 0-1.286 1.286v17.212a1.29 1.29 0 0 0 1.286 1.286h17.212a1.29 1.29 0 0 0 1.286-1.286V7.305a1.29 1.29 0 0 0-1.286-1.286m.786 18.498a.787.787 0 0 1-.786.786H7.321a.787.787 0 0 1-.786-.786V7.305c0-.433.353-.786.786-.786h17.212c.433 0 .786.353.786.786z"/><path fill="none" d="m17.142 8.021-.82 2.687.014.141q.015.141.184.141h1.047q.226 0 .225-.212V8.092q0-.283-.381-.283-.213 0-.269.212M21.37 11.938q-.65 0-.65.65t.65.65.65-.65-.65-.65M18.443 10.99h.934q.225 0 .226-.226V8.021q0-.212-.198-.212h-.962q-.212 0-.212.212l-.014 2.757q-.001.212.226.212M20.239 10.269h1.895q.212 0 .212-.226V8.021q0-.212-.212-.212h-1.895q-.212-.014-.212.212v2.036l.042.113q.042.099.17.099"/><path d="M21.166 11.613a1.23 1.23 0 0 0-.918.391 1.23 1.23 0 0 0-.392.918q.001.542.392.933.375.376.918.376.541 0 .933-.376.376-.39.376-.933 0-.541-.376-.918a1.27 1.27 0 0 0-.933-.391m0 2.001q-.692 0-.692-.692t.692-.692.692.692-.692.692"/><path d="M16.562 7.49a.5.5 0 0 0-.301.316l-.947 3.115v2.15q0 .301.3.301h3.552q.39-.014.39-.375v-.075q.001-.677.482-1.143a1.52 1.52 0 0 1 1.128-.482q.678.001 1.143.482.466.466.466 1.143v.06q.03.39.392.39h1.383v-2.916h-1.626q-.135 0-.181-.105l-.045-.121V8.064q0-.24.226-.225h1.626V7.37h-7.597a1.2 1.2 0 0 0-.391.12m3.175.572q0-.24.226-.225h2.016q.226 0 .226.225v2.152q0 .24-.226.241h-2.016q-.136 0-.181-.106l-.045-.12zm-1.911 0q0-.225.226-.225h1.023q.21 0 .211.225v2.919q0 .24-.24.24h-.994q-.24 0-.241-.226zm-.467.076v2.858q0 .226-.24.226h-1.114q-.18 0-.195-.15l-.015-.15.873-2.859q.061-.225.286-.225.405-.002.405.3"/><path fill="none" d="m10.923 15.99.13.358c.076-.004.151-.012.228-.012q.173.002.342.017l.122-.977zM11.549 17.71c.074.203.001.412-.157.498-.013.007-.023.019-.037.025l-.403.146c-.187.068-.404-.055-.485-.276l-.218-.6a3.21 3.21 0 0 0-2.186 3.032 3.22 3.22 0 0 0 3.218 3.218 3.22 3.22 0 0 0 3.217-3.218c0-.36-.073-.7-.182-1.024a3.205 3.205 0 0 0-2.816-2.172l-.089-.009.067.185z"/><path fill="#04070B" d="M13.142 14.132q.579 0 .982-.427.4-.422.401-1.04-.001-.617-.401-1.041a1.3 1.3 0 0 0-.982-.427 1.3 1.3 0 0 0-.983.427 1.45 1.45 0 0 0-.399 1.041q-.002.617.399 1.04.405.427.983.427"/><path fill="#1D1920" d="M13.836 18.714a3.752 3.752 0 0 0-2.625-1.385q-.15-.014-.302-.015c-.057 0-.112.006-.168.008l.013.036.128.352.147.404q.041.006.082.008a2.965 2.965 0 0 1 2.606 2.01c.101.299.169.614.169.948a2.98 2.98 0 0 1-2.978 2.979 2.983 2.983 0 0 1-2.979-2.979c0-1.306.851-2.406 2.023-2.807l-.135-.37-.126-.346-.013-.035a3.77 3.77 0 0 0-2.539 3.557 3.77 3.77 0 0 0 3.767 3.767 3.77 3.77 0 0 0 3.767-3.767c0-.328-.046-.644-.125-.948a3.7 3.7 0 0 0-.712-1.417"/><path fill="#04070B" d="M16.191 19.124c-.05-.247-.375-.408-.596-.408l-1.608-.002c.32.415.557.896.689 1.419h.326l.631 2.952c0 .238.173.43.384.43h.57c.213 0 .384-.192.384-.43l-.631-3.336c.001-.007-.149-.625-.149-.625M9.82 17.904l.135.37.202.556c.074.204.275.318.449.255l.373-.136c.013-.005.022-.016.034-.023.146-.079.214-.273.145-.461l-.065-.18-.062-.171-.147-.404-.128-.352-.013-.036-.043-.118-.12-.331.761-.568-.113.905a3.87 3.87 0 0 1 2.424 1.117l.537-3.284c.026-.278-.247-.623-.725-.619l-1.294-.004c-.116-.011-.305.081-.452.202v-.001l-2.203 1.833a.3.3 0 0 0-.097.195c-.02.079.001.151.033.238l.19.522.041.113.013.035z"/></svg>