<svg xmlns="http://www.w3.org/2000/svg" viewBox="0 0 32 32"><path fill="#1d1d1b" stroke-width="0" d="m24.797 18.769-.329-.5c-.026-.04-.066-.064-.098-.099-.848-1.127-1.873-1.317-2.508-1.221-.042-.001-.082-.016-.124-.011l-7.477.847c-.349.045-.63-.006-.841-.163-.402-.302-.567-.938-.597-1.159h-.011c-.003-.027.005-.053 0-.081l-1.997-9.477a.904.904 0 0 0-1.066-.694l-.216.045a.903.903 0 0 0-.694 1.067l1.997 9.476c.005.023.021.041.027.063.076.43.365 1.602 1.339 2.345.236.181.498.316.776.415q-.002.01-.004.021v5.608a.9.9 0 0 0 .899.9h.22a.9.9 0 0 0 .9-.9v-5.516l5.028-.57v6.183a.9.9 0 0 0 .899.9h.22c.496 0 .9-.404.9-.9V19.15c0-.076-.025-.144-.043-.215.05-.011.097-.03.145-.046l.008.036c.121-.022.412.111.722.589l.238.362a.9.9 0 0 0 .755.406c.174 0 .344-.05.491-.147l.185-.121a.9.9 0 0 0 .257-1.245Z" data-name="Layer 1"/></svg>