<svg xmlns="http://www.w3.org/2000/svg" data-name="Layer 1" version="1.1" viewBox="0 0 32 32"><rect width="1.299" height="1.299" x="21.043" y="13.802" fill="#1d1d1b" stroke-width="0" rx=".643" ry=".643"/><path fill="#1d1d1b" stroke-width="0" d="M25.734 15.73h-.859a.9.9 0 0 0-.306.062 5.5 5.5 0 0 0-2.785-3.89c.011-.038.033-.068.033-.111V9.603c0-.176-.103-.319-.23-.319-2.263-.173-2.854.88-2.969 1.95h-2.567a2.94 2.94 0 0 1-2.3 1.117c-.387 0-.754-.079-1.093-.214a5.5 5.5 0 0 0-2.477 4.397c-.007.003-.014.001-.02.004a1.4 1.4 0 0 1-1.072.008 1.4 1.4 0 0 1-.767-.75 1.4 1.4 0 0 1 .279-1.518.75.75 0 0 0-1.088-1.034 2.9 2.9 0 0 0-.571 3.138 2.917 2.917 0 0 0 2.676 1.768q.282 0 .56-.057c.062 2.44 1.728 4.468 3.974 5.12a1 1 0 0 0-.077.382v1.483a1 1 0 1 0 2 0v-1.483c0-.05-.021-.093-.029-.142h2.792c-.007.048-.028.091-.028.141v1.483a1 1 0 1 0 2 0v-1.483a1 1 0 0 0-.08-.391c1.98-.596 3.499-2.263 3.847-4.337.094.034.193.06.298.06h.859c.496 0 .9-.404.9-.9V16.63c0-.496-.404-.9-.9-.9m-3.164-.878a1.29 1.29 0 0 1-1.286 1.286h-.026a1.29 1.29 0 0 1-1.286-1.286v-.026a1.29 1.29 0 0 1 1.286-1.286h.026a1.29 1.29 0 0 1 1.286 1.286z"/><circle cx="13.404" cy="8.709" r="2.337" fill="#1d1d1b" stroke-width="0"/></svg>