<svg xmlns="http://www.w3.org/2000/svg" data-name="Layer 1" version="1.1" viewBox="0 0 32 32"><path fill="#1d1d1b" stroke-width="0" d="M17.087 6.773c-.599.809-.399 1.927.449 2.495.839.569 1.877.25 2.476-.559.598-.799.529-1.787-.32-2.356-.838-.569-2.006-.379-2.604.42Zm7.407 3.634c-.009-.439-.548-.929-1.107-.828-.21.039-.47.139-.62.35l-.818 1.127-.807 1.128s-1.149-1.058-1.498-1.338a9 9 0 0 0-1.167-.748c-.451-.26-1.618-.529-2.117-.469l-.329.049-3.194.44a1.41 1.41 0 0 0-.968.668l-1.388 2.336c-.129.239-.229.459-.18.698.09.45.549.778 1.038.698.26-.038.57-.21.769-.499l1.218-1.876 1.397-.199-1.667 3.623c-.929 1.567.499 2.556 1.008 3.034l.18.151 2.635 2.184-1.876 3.056c-.1.119-.13.319-.13.479 0 .608.51 1.088 1.108 1.088.469 0 .838-.25 1.047-.608l.479-.81 1.587-2.654c.539-1.018-.23-1.878-.23-1.878l-2.693-2.576.718-1.177 1.678-2.754 2.186 1.227s.848.589 1.487-.31l.759-1.057 1.219-1.728.01-.01c.249-.37.269-.6.269-.818Zm-10.71 8.783-.18-.149c-.239-.229-.678-.567-.988-1.028-.01-.019-2.286 3.625-2.286 3.625l-2.535 2.584c-.13.1-.2.279-.24.439-.139.599.24 1.168.829 1.299.459.099.879-.071 1.158-.382l.669-.688 2.156-2.255c.559-.65 1.647-2.108 2.175-2.816z"/></svg>