<svg xmlns="http://www.w3.org/2000/svg" data-name="Layer 1" version="1.1" viewBox="0 0 32 32"><path stroke-width="0" d="m24.339 8.43-2.744-2.352a.25.25 0 0 0-.413.19v5.096a.25.25 0 0 0 .427.177l2.744-2.744a.25.25 0 0 0-.014-.367M14.464 16.537a2.68 2.68 0 0 0 1.967-.805q.804-.803.804-1.967c0-1.164-.268-1.433-.804-1.967q-.806-.805-1.967-.805c-1.161 0-1.43.268-1.97.805-.537.534-.799 1.192-.799 1.967s.262 1.433.799 1.967a2.7 2.7 0 0 0 1.97.805"/><path stroke-width="0" d="M20.782 14.772v-8.36a.4.4 0 0 0-.8 0v7.77a.77.77 0 0 0-.611.229l-2.998 2.997h-4.144a.68.68 0 0 0-.543.284l-2.667 2.666a.9.9 0 0 0-.178.267.8.8 0 0 0-.147.459v3.903c0 .41.283.743.631.743h.749c.348 0 .631-.333.631-.743v-3.201l.816-.815v4.849l5.57.003v-6.074l2.891-2.891v1.206a.4.4 0 0 0 .8 0v-2.007l.117-.117c.291-.291.326-.726.08-.973l-.196-.196Z"/></svg>