<svg xmlns="http://www.w3.org/2000/svg" viewBox="0 0 32 32"><g fill="#1a171b" stroke-width="0" data-name="Layer 1"><path d="M6.58 21.9a.4.4 0 0 0 .101-.015l19.126-4.78a.41.41 0 0 0 .315-.403V7.155a.914.914 0 0 0-1.141-.887L6.853 10.893a.91.91 0 0 0-.687.887v9.704c0 .23.185.417.414.417ZM21.343 8.462c0-.23.186-.416.415-.416h3.117c.23 0 .416.186.416.416v4.99a.416.416 0 0 1-.416.416h-3.117a.417.417 0 0 1-.415-.416zM16.56 9.685c0-.23.185-.417.417-.417h3.116c.231 0 .418.186.418.417v4.989a.417.417 0 0 1-.418.415h-3.116a.416.416 0 0 1-.417-.415zm-4.783 1.216c0-.229.187-.416.416-.416h3.12c.228 0 .415.187.415.416v4.989c0 .23-.187.415-.415.415h-3.12a.416.416 0 0 1-.416-.415zm-4.781 1.221c0-.229.185-.416.414-.416h3.12c.227 0 .414.186.414.416v4.987a.416.416 0 0 1-.414.416H7.41a.415.415 0 0 1-.414-.416z"/><path d="M26.123 20.326 6.166 25.318 6.166 26.175 26.123 21.186 26.123 20.326 26.123 20.326z"/><path d="M10.797 22.183a1.206 1.206 0 1 0 2.412-.002 1.206 1.206 0 0 0-2.412.002M7.797 22.994a1.205 1.205 0 1 0 2.413.001 1.205 1.205 0 0 0-2.413-.001M19.046 20.117c0 .668.541 1.209 1.205 1.209s1.206-.541 1.206-1.209c0-.663-.541-1.205-1.206-1.205s-1.205.542-1.205 1.205M22.108 19.369a1.206 1.206 0 1 0 2.412 0 1.206 1.206 0 0 0-2.412 0"/></g></svg>