<svg xmlns="http://www.w3.org/2000/svg" xml:space="preserve" x="0" y="0" viewBox="0 0 32 32"><path d="M7.998 16.111a8.36 8.36 0 0 1 2.412-5.894L8.982 8.814a10.36 10.36 0 0 0-2.984 7.297c0 2.955 1.263 5.781 3.465 7.754l1.334-1.49a8.43 8.43 0 0 1-2.799-6.264"/><path d="m12.854 12.226-1.432-1.397a7.53 7.53 0 0 0-2.151 5.282c0 2.065.859 4.064 2.358 5.484l1.377-1.451a5.5 5.5 0 0 1-1.735-4.033c0-1.459.563-2.838 1.583-3.885M22.556 8.769l-1.334 1.49a8.42 8.42 0 0 1 2.8 6.264 8.36 8.36 0 0 1-2.412 5.895l1.426 1.402a10.35 10.35 0 0 0 2.986-7.297 10.43 10.43 0 0 0-3.466-7.754"/><path d="m20.388 11.038-1.375 1.451a5.5 5.5 0 0 1 1.734 4.033c0 1.46-.562 2.84-1.582 3.886l1.432 1.397a7.52 7.52 0 0 0 2.15-5.282c0-2.066-.86-4.065-2.359-5.485M15.888 18.603a1 1 0 0 0 1-1V7.316a1 1 0 1 0-2 0v10.286a1 1 0 0 0 1 1.001M15.998 21.144a2.286 2.286 0 0 0-2.293 2.293c0 1.27.996 2.293 2.24 2.293 1.269 0 2.32-1.023 2.32-2.293a2.28 2.28 0 0 0-2.267-2.293"/></svg>