<svg xmlns="http://www.w3.org/2000/svg" data-name="Layer 1" version="1.1" viewBox="0 0 32 32"><path fill="#1a171b" fill-rule="evenodd" stroke-width="0" d="m24.966 15.863-1.768-5.199c-.426-.853-.505-1.07-1.125-1.07H9.835c-.621 0-.875.349-1.124 1.07l-1.444 5.155c-.622 0-1.125.56-1.125 1.252v3.982c0 .691.503 1.25 1.125 1.25h.275v1.349c0 .586.752 1.062 1.679 1.062s1.677-.476 1.677-1.062v-1.349h10.545c-.002.023-.011.044-.011.067v1.416c0 .585.752 1.061 1.679 1.061s1.677-.476 1.677-1.061V22.37c0-.023-.009-.045-.011-.067h.232c.621 0 1.125-.559 1.125-1.25v-3.982c0-.691-.548-1.208-1.168-1.208m-1.997 1.556a1.389 1.389 0 1 1-.001 2.777 1.389 1.389 0 0 1 .001-2.777m-13.71-.129a1.387 1.387 0 1 1 .001 2.775 1.387 1.387 0 0 1-.001-2.775m1.564-2.015c-.774 0-1.4-.565-1.4-1.266v-2.16c0-.7.626-1.267 1.4-1.267h10.244c.774 0 1.399.567 1.399 1.267v2.16c0 .701-.625 1.266-1.399 1.266z"/><path fill="#1a171b" stroke-width="0" d="M14.135 6.027h4.14c.608 0 1.102.494 1.102 1.102v.553c0 .608-.494 1.101-1.101 1.101h-4.14a1.103 1.103 0 0 1-1.103-1.103v-.551c0-.608.494-1.103 1.103-1.103Z"/></svg>