<svg xmlns="http://www.w3.org/2000/svg" data-name="Layer 1" version="1.1" viewBox="0 0 32 32"><path fill="none" stroke-width="0" d="m22.245 21.888 2.266-12.847v-.006l-8.234-1.451-.378 2.135 2.561.451c.179.032.342.102.487.198l3.732.658a.348.348 0 0 1-.121.685l-3.036-.535c.065.224.087.467.044.716l-.026.147 2.883.508a.348.348 0 0 1-.121.685l-2.883-.508-.141.802 2.834.5a.348.348 0 0 1-.121.685l-2.834-.5-1.221 6.921 4.414.778q-.017-.002-.033-.002a.16.16 0 0 0-.093.027l.758.082-.738-.13Z"/><path fill="none" stroke-width="0" d="m16.199 22.349.13-.738.13-.739 1.221-6.921.121-.685.142-.802.121-.685.026-.145v-.005l-2.453-.432-.747-.132-.739-.13-4.296-.757-2.276 12.85v.005l8.351 1.472q-.017-.002-.033-.002a.16.16 0 0 0-.093.027l.758.081-.739-.13.376-2.131Zm-5.012-9.623 2.569.453.739.13.745.131 1.018.18a.348.348 0 0 1-.121.686l-1.019-.18-.744-.131-.739-.13-2.569-.453a.348.348 0 0 1 .121-.685Zm-.256 1.52 2.558.451.739.13.744.131 1.031.182a.348.348 0 0 1-.121.685l-1.032-.182-.743-.131-.739-.13-2.558-.451a.348.348 0 0 1 .121-.685m4.64 3.058-.984-.174-.742-.131-.738-.13-2.607-.46a.348.348 0 0 1 .121-.685l2.606.46.738.13.742.131.984.173a.348.348 0 0 1-.121.685Z"/><path fill="#1a171b" stroke-width="0" d="m24.881 7.577-8.462-1.491c-.752-.139-1.482.422-1.631 1.24l-.376 2.131-4.414-.778c-.75-.138-1.483.422-1.631 1.239L6.102 22.766c-.065.373 0 .752.183 1.066.204.351.541.59.925.657l8.458 1.491q.115.021.229.021c.271 0 .537-.085.769-.246.33-.23.56-.6.634-1.015l.376-2.131 4.413.778q.115.021.229.021c.27 0 .537-.085.769-.246.329-.229.56-.6.633-1.014l2.267-12.85c.14-.814-.355-1.586-1.107-1.722Zm-9.077 16.952c.008-.009.044-.027.093-.027q.017 0 .033.002l-8.351-1.472v-.005l2.276-12.85 4.296.757.739.13.747.132 2.453.432v.005l-.026.145-.121.685-.142.802-.121.685-1.221 6.921-.13.739-.13.738-.376 2.131.739.13-.758-.081Zm7.179-2.511-.758-.082a.15.15 0 0 1 .093-.027q.015 0 .033.002l-4.414-.778 1.221-6.921 2.834.5q.03.006.061.005a.35.35 0 0 0 .342-.287.35.35 0 0 0-.282-.403l-2.834-.5.141-.802 2.883.508q.03.005.061.005a.35.35 0 0 0 .342-.287.35.35 0 0 0-.282-.403l-2.883-.508.026-.147a1.6 1.6 0 0 0-.044-.716l3.036.535q.03.006.061.005a.35.35 0 0 0 .342-.287.35.35 0 0 0-.282-.403l-3.732-.658a1.3 1.3 0 0 0-.487-.198L15.9 9.72l.378-2.135 8.234 1.451v.006l-2.266 12.847.738.13Z"/><path fill="#1a171b" stroke-width="0" d="M15.973 17.022a.35.35 0 0 0-.282-.403l-.984-.173-.742-.131-.738-.13-2.606-.46a.349.349 0 0 0-.121.685l2.607.46.738.13.742.131.984.174q.03.005.061.005a.35.35 0 0 0 .342-.287ZM11.066 13.411l2.569.453.739.13.744.131 1.019.18q.03.005.061.005a.348.348 0 0 0 .06-.691l-1.018-.18-.745-.131-.739-.13-2.569-.453a.347.347 0 1 0-.121.685ZM10.81 14.932l2.558.451.739.13.743.131 1.032.182q.03.006.061.005a.35.35 0 0 0 .342-.287.35.35 0 0 0-.282-.403l-1.031-.182-.744-.131-.739-.13-2.558-.451a.349.349 0 0 0-.121.685"/></svg>