<svg xmlns="http://www.w3.org/2000/svg" viewBox="0 0 32 32"><g fill="#1d1d1b" fill-rule="evenodd" stroke-width="0" data-name="Layer 1"><path d="M14.986 24.053h-3.747q-.252 0-.251.253 0 .063.03.095.536 1.45 2.078 1.449c1.542-.001 1.733-.482 2.11-1.449a.14.14 0 0 0 .031-.095q0-.253-.252-.253ZM20.484 24.053h-3.779q-.218 0-.219.253v.095q.566 1.45 2.109 1.449c1.543-.001 1.732-.482 2.109-1.449v-.095q0-.253-.221-.253ZM23.857 12.206c-.191-.588-.844-.77-1.768-.77h-2.517L15.855 7.28a.56.56 0 0 0-.439-.221q-.6 0-.601.598 0 .253.158.409l2.96 3.37H6.034v.988h4.026q.316 0 .316.348v4.66q0 .316-.316.315H6.034v5.165H25.68q.318 0 .317-.314v-3.59zm-6.866 5.227q-.002.316-.348.315h-4.819q-.313 0-.313-.315v-4.66q0-.346.313-.348h4.819q.345 0 .348.348zm3.369 1.94h-1.763q-.52 0-.521-.521v-5.951q0-.488.457-.488h1.826q.488 0 .489.488l.033 5.982q-.001.49-.522.49Zm4.44-.364v.031q0 .314-.314.315h-2.173q-.345 0-.345-.315v-6.267q0-.346.345-.348h.22q.22 0 .283.222l1.984 6.298z"/></g></svg>