<svg xmlns="http://www.w3.org/2000/svg" viewBox="0 0 32 32"><g stroke-width="0" data-name="Layer 1"><path d="M13.013 18.627a1 1 0 0 0 1-1V7.342a1 1 0 1 0-2 0v10.286a1 1 0 0 0 1 1ZM12.981 21.169c-1.271 0-2.293 1.021-2.293 2.293s.996 2.293 2.24 2.293c1.269 0 2.32-1.024 2.32-2.293s-1.022-2.293-2.268-2.293ZM19.151 13.369a1 1 0 0 0-1 1v10.286a1 1 0 1 0 2 0V14.369a1 1 0 0 0-1-1M19.235 6.241c-1.27 0-2.32 1.023-2.32 2.293s1.021 2.293 2.268 2.293c1.271 0 2.293-1.021 2.293-2.293s-.996-2.293-2.24-2.293Z"/></g></svg>