<svg xmlns="http://www.w3.org/2000/svg" data-name="Layer 1" version="1.1" viewBox="0 0 32 32"><path fill="#1d1d1b" stroke-width="0" d="M22.08 14.342c-.227 0-.447.029-.664.067l-1.271-3.973a.5.5 0 0 0-.477-.348h-2.01a.5.5 0 0 0 0 1h1.645l.451 1.41H13.12l-.485-.91h.448c.457 0 .894-.242 1.042-.58.066-.152.035-.255-.002-.312-.095-.146-.307-.152-.332-.152h-2.927c-.009 0-.256-.009-.418.146a.44.44 0 0 0-.133.326c-.005.336 0 .586 0 .599.008.054.055.329.199.417a.5.5 0 0 0 .27.07c.162 0 .297-.06.302-.062l.551-.2.634 1.189-.933 1.605a3.7 3.7 0 0 0-1.45-.293c-2.079 0-3.771 1.697-3.771 3.784s1.691 3.784 3.771 3.784c1.965 0 3.565-1.522 3.737-3.45h1.902a.5.5 0 0 0 .387-.183l3.921-4.778h.242l.391 1.221a3.78 3.78 0 0 0-2.156 3.405c0 2.087 1.691 3.784 3.771 3.784s3.771-1.697 3.771-3.784-1.691-3.784-3.771-3.784Zm-10.395 1.685c.428.371.743.865.883 1.434h-1.716zm-1.799 4.884c-1.527 0-2.771-1.249-2.771-2.784s1.243-2.784 2.771-2.784c.33 0 .643.068.937.175L9.55 17.71a.502.502 0 0 0 .434.751h2.64c-.166 1.376-1.323 2.45-2.737 2.45Zm3.704-3.451a3.77 3.77 0 0 0-1.398-2.306l.631-1.086 1.809 3.392zm1.987-.352-1.924-3.609h4.886zm6.503 3.803a2.776 2.776 0 0 1-1.306-5.224l.829 2.593a.5.5 0 0 0 .629.325.5.5 0 0 0 .324-.629l-.83-2.596c.117-.015.233-.036.354-.036 1.527 0 2.771 1.249 2.771 2.784s-1.243 2.784-2.771 2.784Z"/></svg>