<svg xmlns="http://www.w3.org/2000/svg" xml:space="preserve" x="0" y="0" viewBox="0 0 32 32"><g fill="#1D1D1B"><path d="M16.958 17.394c.008-.645-.005-1.291.003-1.936.003-.261.076-.752.076-.752s.249.214.466.714c.257.592.258 1.419.249 2.064-.003.261-.034.583-.499.658-.265.043-.505-.378-.501-.658z"/><path d="M19.501 10.418a15 15 0 0 1-.494-1.024c-.743-1.658-.739-.272-.593.352.293 1.25 1.028 2.223 1.509 3.319.445 1.014 1.066 3.052.725 4.48-.179.779-.609 1.514-1.357 1.689.017-.413-.05-.816-.284-1.049-.1-.1-.37.334-.445.635-.053.213-.044.545-.072.656-.01.04.071.289-.152.33-.175.032-.389.188-1.697-.636-.064-.041-.118-.088-.175-.133.274-.227.549-.463.836-.714.255-.223.517-.427.454-.988-.047-.424-.243-.346-.486-.108a.2.2 0 0 0-.174-.002c-.809.332-1.335.367-2.116.033-.005-.596.005-1.193-.003-1.789-.003-.261-.067-.806-.067-.806s-.249.214-.466.714c-.222.511-.251 1.191-.25 1.784a1.3 1.3 0 0 0 0 .247v.033l.001.004.008.041a.6.6 0 0 0 .033.162.6.6 0 0 0 .09.216c.45.499.681.744 1.209 1.161-.062.046-.108.102-.174.145-.63.402-1.045.484-1.376.545-.235.043-.337.029-.412-.031-.067-.053-.068-.21-.086-.332-.05-.334-.11-.557-.126-.585-.527-.973-.61-.777-.694 0-.013.12-.004.299.022.495-.027-.006-.053-.017-.081-.021-.826-.117-1.276-.908-1.465-1.73-.342-1.428.279-3.467.725-4.48.481-1.096 1.216-2.069 1.509-3.319.147-.624.287-1.83-.573-.319-.258.454-.394.739-.502.954-.564 1.118-1.021 1.57-1.418 2.491-.864 2.269-1.781 6.464 1.535 7.005.173.028.31.038.423.036.183.496.526.891 1.089.73 1.416 1.379 2.85 1.391 4.102-.076.399.147.724.2.862.083.103-.088.228-.38.312-.737.053.003.106.006.167-.002 3.303-.61 2.399-4.736 1.535-7.005-.4-.921-.802-1.358-1.408-2.454m-3.47 10.613c-.619-.01-1.023-.318-1.333-.78.48-.263.913-.548 1.316-.857l.063.048c.346.258.763.518 1.171.735-.275.452-.637.863-1.217.854"/><path d="M25.57 14.206c-.018-1.256-.554-2.389-1.285-3.386 1.823-1.903-.838-4.418-2.996-3.308-.824-.738-1.77-1.337-2.892-1.455-.896-.094-1.755.16-2.561.529-1.841-.699-4.168-.781-5.581.794-.01.011-.012.024-.021.036l-.2-.136c-1.433-.951-3.838 1.269-3.172 3.022.058.17.139.316.23.45-.346.785-.614 1.589-.71 2.45-.126 1.125.089 2.261.486 3.314q.002.006.006.01c-.223.823-.344 1.613-.447 2.74-.153 1.682.092 3.625 1.613 4.636.982.652 2.247.71 3.382.592.052-.005.093-.026.137-.042a2.62 2.62 0 0 0 2.372 1.413c1.098.025 1.098-.129.5-.5-.826-.512.576-1.498 1.565-1.452 2.111.141 4.285 1.48 6.387.54 1.341-.648 2.101-2.386 2.317-3.773a7.7 7.7 0 0 0-.066-2.864c.493-1.142.954-2.349.936-3.61m-3.406-6.063c.188-.018.777.039 1.203.387.027.029.268.236.326.321.022.036.13.202.174.298.079.172.078.402.078.455-.037.317-.299.567-.42.669-.013.003-.021.011-.033.014-.357-.888-1.087-1.648-1.983-1.88.26-.17.304-.196.655-.264M7.739 9.521c.089-.563 1.007-1.467 1.907-1.31.1.002.349.117.582.325-.758.357-1.336 1.088-1.775 1.954-.017-.01-.028-.019-.046-.029-.424-.237-.454-.246-.633-.561l-.029-.103c-.004-.046-.026-.232-.006-.276m16.441 6.736c-.186-.518-.395-1.048-.608-1.628-.141-.384-.671-1.67-.688-.725-.072 2.645 1.737 3.628.229 7.879-1.548 4.364-8.264-2.025-9.562 3.008-.462-.116-.903-.348-1.138-.776-.306-.557-.511-1.137-.511-1.808 0-.795-.186-.815-.41-.217a2.87 2.87 0 0 0-.227 1.515c-1.571.132-3.196-.19-3.691-1.893-.462-1.589-.166-3.523.26-5.075.251-.916.493-2.136.915-2.986.529-1.065.397-1.474-.606-.159 0 0-.312.447-.622 1.238l-.079.209a5.7 5.7 0 0 1-.067-1.556c.063-.643.261-1.267.51-1.863.19.087.381.141.56.163.385.143.976.154.976.154s-.024-.581.012-.771c.093-.485.246-.724.328-.877.201-.374.345-.525.541-.695.145-.126.414-.374.565-.482.528-.377.79-.412.79-.412s-.169-.17-.598-.498c1.234-1.265 3.02-.93 4.546-.448.42.133.728-.129 1.12-.271a3.8 3.8 0 0 1 1.202-.248c.989-.022 1.833.475 2.558 1.104-.238.26-.459.579-.653.973 0 0 .619-.192 1.104.028.269.122.619.206.904.508.309.327 1.078 1.195 1.051 1.972-.022.627.009.376.626-.161.581.818 1.041 1.721 1.056 2.747.007.7-.163 1.386-.393 2.051"/><path d="M18.263 14.297a.906.906 0 1 0 0-1.812.906.906 0 0 0 0 1.812M12.803 13.391a.906.906 0 1 0 1.812 0 .906.906 0 0 0-1.812 0"/></g></svg>