<svg xmlns="http://www.w3.org/2000/svg" data-name="Layer 1" version="1.1" viewBox="0 0 32 32"><path fill="#1a171b" stroke-width="0" d="M18.612 19.791s5.963-.416 6.686-.96c.257-.724-.476-4.319-.525-4.637l-.02-.704c0-.107.012-.266.02-.455a.464.464 0 0 0 .427-.376.49.49 0 0 0-.327-.546l.01-.088a.44.44 0 0 0 .395-.406.47.47 0 0 0-.246-.475q.07-.356.156-.653c.129-.477.694-1.1.367-1.338-.406-.307-.673.01-.96.634-.812 1.753-4.735.396-6.786-.287l-.208.753-.326-.039a.286.286 0 0 0-.317.257.29.29 0 0 0 .248.327l.217.029c-.08.268-.169.525-.268.783l-.236-.119a.276.276 0 0 0-.378.139.304.304 0 0 0 .13.397l.275.139q-.147.356-.296.684l-.208-.1c-.148-.079-.317-.01-.387.139a.3.3 0 0 0 .139.396l.198.1c-.099.197-.198.386-.308.574l-.197-.149a.28.28 0 0 0-.396.079.3.3 0 0 0 .068.407l.209.159a7 7 0 0 1-.535.713L15.094 15a.276.276 0 0 0-.405-.041c-.12.1-.14.288-.04.416l.178.219a4 4 0 0 1-.494.416c0-.01-.119.01-.299.049l-.029-.138c-.039-.159-.188-.268-.346-.227a.3.3 0 0 0-.219.356l.029.109c-.901.158-2.338.337-3.466.108-2.438-.574-3.468 1.516-3.498 2.715.556.386 1.377 1.227 5.251 1.685 3.18.365 5.943-.594 6.855-.873Z"/><path fill="#1a171b" stroke-width="0" d="M25.626 19.594c-3.013.555-1.289.406-6.717.872-8.678 2.407-12.67-.872-12.67-.872L6.07 21.09l1.327.714.326-.317.535.128v.456l.703.197.169-.396.535.08v.465l.931.189.238-.348.713.139.139.407.664.019.287-.444.596.048.147.476h.763l.07-.396.771-.09.16.446 1.02-.049.078-.595 2.695-.604.585 1.11h.882l.157-.496.535-.099.178.524.823-.128.129-.535.773-.14.258.605.733-.139.129-.556.505-.139.417.516.841-.347-.257-2.199Z"/></svg>