<svg xmlns="http://www.w3.org/2000/svg" viewBox="0 0 32 32"><g fill="#1d1d1b" stroke-width="0" data-name="Layer 1"><path d="M9.874 13.821c-1.27 0-2.293.996-2.293 2.24 0 1.269 1.023 2.319 2.293 2.319s2.293-1.022 2.293-2.267a2.287 2.287 0 0 0-2.293-2.293ZM16.073 13.822c-1.269 0-2.293.996-2.293 2.24 0 1.268 1.023 2.318 2.293 2.318s2.293-1.022 2.293-2.266a2.286 2.286 0 0 0-2.293-2.293ZM22.274 13.82c-1.269 0-2.293.996-2.293 2.24 0 1.27 1.023 2.32 2.293 2.32s2.293-1.022 2.293-2.268a2.286 2.286 0 0 0-2.293-2.293Z"/></g></svg>