<svg xmlns="http://www.w3.org/2000/svg" data-name="Layer 1" version="1.1" viewBox="0 0 32 32"><path fill="#1d1d1b" stroke-width="0" d="M18.94 16.921a3.8 3.8 0 0 1-1.118 1.052c3.321.125 5.781.571 5.781 1.106 0 .631-3.431 1.448-7.661 1.448s-7.661-.817-7.661-1.448c0-.513 2.267-.947 5.388-1.092a3.9 3.9 0 0 1-1.114-1.046c-3.839.207-6.589.753-6.589 1.398 0 3.681 4.468 6.662 9.977 6.662s9.977-2.981 9.977-6.662c0-.665-2.934-1.229-6.979-1.418Z"/><path fill="#1d1d1b" stroke-width="0" d="M13.876 17.435q.028.022.06.042c.144.084.294.145.443.207l.809.223 1.416-.049a3.6 3.6 0 0 0 1.01-.436 3.4 3.4 0 0 0 1.007-.946c.054-.076.117-.142.167-.225a3.53 3.53 0 0 0-.161-3.865h.004c-1.454-1.936-1.863-3.961-.797-5.339 0 0-.353-.122-.889.102-3.036 1.1-4.854 4.134-4.733 7.396a3.54 3.54 0 0 0 1.664 2.889Zm.253-1.286c-.619-1.649-.207-3.512 1.159-4.594.237-.207.438-.207.438-.207-.311.891.245 1.856 1.32 2.598l-.002.002c.594.433.911 1.188.742 1.952a1.8 1.8 0 0 1-.216.535c-.156.27-.369.497-.628.66l-.715.268-.452.025c-.088-.008-.176-.012-.264-.031a1.9 1.9 0 0 1-1.236-.922c-.054-.093-.109-.184-.147-.286Z"/></svg>