<svg xmlns="http://www.w3.org/2000/svg" viewBox="0 0 32 32"><g fill="#1d1d1b" stroke-width="0" data-name="Layer 1"><path d="M11.454 22.434q-.25.02-.23.273.005.063.038.092.652 1.401 2.189 1.276 1.54-.124 1.986-1.616.029-.034.023-.097-.02-.252-.272-.232zM20.669 21.684l-3.767.306q-.218.017-.198.27l.005.063.003.031q.682 1.4 2.22 1.273 1.538-.124 1.985-1.615 0-.001-.003-.031l-.005-.063q-.021-.252-.24-.234M25.987 19.751l-.225-2.963-.008-.093-1.372-6.713c-.127-.652-.426-.738-1.348-.663l-7.062.574 1.822-1.642.057-.051-3.929-1.821-.026-.013-3.518 2.444-.062.043 2.116 1.328-6.436.537V21.7l19.701-1.611q.317-.026.291-.339Zm-13.994-3.202-4.374.391q-.312.026-.338-.289l-.378-4.645q-.028-.345.284-.372l4.374-.391q.344-.028.375.318l.378 4.645q.024.315-.321.343m-.538-7.705L13.959 7.1l2.768 1.288-1.786 1.589-1.464.119zm4.547 9.006-1.757.143q-.519.042-.561-.477l-.483-5.932q-.04-.486.416-.524l1.82-.148q.487-.039.527.447l.518 5.96q.04.489-.481.531Zm3.814-.307-1.757.143q-.519.042-.561-.477l-.483-5.932q-.04-.486.416-.524l1.82-.148q.487-.039.527.447l.518 5.96q.04.489-.481.531Zm4.377-1.986-2.613.213q-.312.026-.338-.289l-.378-4.645q-.028-.345.284-.372l2.061-.168c.229-.019.326.083.375.318l.929 4.6c.045.217-.092.324-.321.343Z"/><path d="M5.996 25.4 5.996 26.257 25.996 24.661 25.996 23.801 5.996 25.4z"/></g></svg>