<svg xmlns="http://www.w3.org/2000/svg" viewBox="0 0 32 32"><g fill="#1a171b" stroke-width="0" data-name="Layer 1"><path d="M20.777 18.845a8.06 8.06 0 0 0 1.566-4.776c0-4.486-3.68-8.137-8.203-8.137s-8.203 3.65-8.203 8.137 3.68 8.139 8.203 8.139a8.2 8.2 0 0 0 4.623-1.42l5.26 5.215 1.984-1.969zm-6.636.975c-3.198 0-5.799-2.58-5.799-5.752s2.602-5.75 5.799-5.75 5.796 2.58 5.796 5.75-2.601 5.752-5.796 5.752"/><path d="M17.078 13.186h-1.89v-1.92a1 1 0 1 0-2 0v1.92h-2.052a1 1 0 1 0 0 2h2.052v2.022a1 1 0 1 0 2 0v-2.022h1.89a1 1 0 1 0 0-2"/></g></svg>