<svg xmlns="http://www.w3.org/2000/svg" viewBox="0 0 32 32"><g fill="#12120d" stroke-width="0" data-name="Layer 1"><path d="M24.526 12.683c-.088-.585-.203-1.245-1.178-1.245l-5.355.003 2.665-2.014-4.647-2.666-4.648 2.666 2.666 2.014H6.033v1.049h9.557q.421 0 .422.424V15.9q0 .425-.422.426H6.032v4.158h19.566zm-9.393-1.243-2.567-1.916 3.445-1.981 3.445 1.981-2.567 1.916zm8.476 5.045h-2.534q-.326 0-.326-.324v-3.346q0-.327.326-.326h2.047q.225-.001.357.293l.455 3.315c0 .262-.108.389-.325.389Z"/><path d="M6.032 22.133H10.68V24.964H6.032z"/><path d="M25.727 22.133 21.341 22.133 21.341 24.964 25.987 24.964 25.987 24.021 25.727 22.133z"/><path d="M13.555 21.239a1.933 1.933 0 1 0 0 3.866 1.933 1.933 0 0 0 0-3.866M18.427 21.225a1.933 1.933 0 1 0 0 3.866 1.933 1.933 0 0 0 0-3.866"/></g></svg>