<svg xmlns="http://www.w3.org/2000/svg" data-name="Layer 1" version="1.1" viewBox="0 0 32 32"><path fill="#1a180a" stroke-width="0" d="M19.182 19.296a.75.75 0 0 0 1.06 0 .75.75 0 0 0 0-1.061l-2.578-2.578-.01-5.236a.75.75 0 0 0-.75-.749h-.001a.75.75 0 0 0-.749.751l.011 5.552a.78.78 0 0 0 .25.555z"/><path fill="#1a180a" stroke-width="0" d="M23.194 9.702a8.75 8.75 0 0 0-6.291-2.601 8.84 8.84 0 0 0-6.286 2.61 8.84 8.84 0 0 0-2.6 6.292c0 .011.006.02.006.031l-.792-.791a.751.751 0 0 0-1.061 1.063l2.046 2.041a.747.747 0 0 0 1.061-.002v-.001h.001l2.041-2.047a.751.751 0 0 0-1.062-1.059l-.74.742a7.34 7.34 0 0 1 2.16-5.208 7.35 7.35 0 0 1 5.226-2.171h.007c1.972 0 3.827.768 5.223 2.162a7.34 7.34 0 0 1 2.17 5.226 7.34 7.34 0 0 1-2.161 5.229 7.35 7.35 0 0 1-5.226 2.17h-.007a7.35 7.35 0 0 1-5.223-2.161.753.753 0 0 0-1.061 0 .753.753 0 0 0 0 1.062 8.84 8.84 0 0 0 6.283 2.599h.008a8.84 8.84 0 0 0 6.287-2.609c1.679-1.683 2.602-3.916 2.6-6.292s-.929-4.608-2.611-6.285ZM8.746 16.755l-.008-.008s.009.003.014.003z"/></svg>