<svg xmlns="http://www.w3.org/2000/svg" data-name="Layer 1" version="1.1" viewBox="0 0 32 32"><path fill="#1d1d1b" stroke-width="0" d="M19.041 8.574c-.558-1.519-1.91-2.615-3.013-2.455L9.059 7.255a.8.8 0 0 0-.311.105L19.16 8.898l-.12-.323ZM21.971 10.68 8.54 8.696v14.198c.226.182.477.316.746.372l12.602 2.59c.969.2 1.761-.557 1.761-1.69V13.015c0-1.101-.748-2.119-1.678-2.335m-6.954.533c.89.175 1.608 1.289 1.608 2.488s-.719 2.026-1.608 1.845c-.885-.179-1.602-1.292-1.602-2.486s.717-2.02 1.602-1.847m-1.335 4.152c.376.48.844.804 1.335.904a1.51 1.51 0 0 0 1.327-.349c.976.697 1.425 2.499 1.425 3.277l-5.511-1.146c0-.78.439-2.398 1.424-2.688Zm5.121 6.825a.5.5 0 0 1-.592.386l-7.376-1.565a.5.5 0 0 1-.386-.593.51.51 0 0 1 .593-.386l7.376 1.566c.27.058.443.323.386.593Z"/></svg>