<svg xmlns="http://www.w3.org/2000/svg" xml:space="preserve" x="0" y="0" version="1.1" viewBox="0 0 32 32"><g fill="#12120D"><path d="M16.7 20.5h5.8c.3 0 .5-.2.5-.5s-.2-.5-.5-.5h-5.8c-.3 0-.5.2-.5.5s.2.5.5.5M17.7 18.6h3.7c.3 0 .5-.2.5-.5s-.2-.5-.5-.5h-3.7c-.3 0-.5.2-.5.5s.3.5.5.5"/><path d="M25.2 8.6H6.8c-.4 0-.7.3-.7.7v13.4c0 .4.3.7.7.7h18.4c.4 0 .7-.3.7-.7V9.3c0-.4-.3-.7-.7-.7m-12.1 1.5h11.4v4.3h-8.9c.2-.3.3-.7.3-1.1V13c0-1-.8-1.9-1.9-1.9-.3 0-.6.1-.9.2zm1.8 2.9v.2c0 .5-.5 1.1-.9 1.1h-.9V13c0-.5.4-.9.9-.9s.9.4.9.9m-2.8 8.9H7.6v-6.6h3.8l-2 2c-.2.2-.2.5 0 .7.1.1.2.1.3.1s.2 0 .3-.1l2-2zm-1.8-8.6V13c0-.5.4-.9.9-.9.2 0 .5.1.6.3q.3.3.3.6v1.3h-.9c-.5 0-.9-.5-.9-1m.9-2.1c-1 0-1.9.8-1.9 1.9v.2c0 .4.1.8.3 1.1h-2v-4.3h4.5v1.3c-.3-.1-.6-.2-.9-.2m13.2 10.7H13V16l2 2c.1.1.2.1.3.1s.2 0 .3-.1c.2-.2.2-.5 0-.7l-2-2h10.7v6.6z"/></g></svg>